<svg xmlns="http://www.w3.org/2000/svg" xmlns:xlink="http://www.w3.org/1999/xlink" contentStyleType="text/css" data-diagram-type="CLASS" height="761px" preserveAspectRatio="none" style="width:1312px;height:761px;background:#FFFFFF;" version="1.1" viewBox="0 0 1312 761" width="1312px" zoomAndPan="magnify"><?plantuml 1.2026.4beta2?><defs/><g><g class="title" data-source-line="1"><text fill="#000000" font-family="sans-serif" font-size="14" font-weight="700" lengthAdjust="spacing" textLength="418.6738" x="443.6267" y="22.9951">Sistema de Moeda Estudantil &#8212; Diagrama de Classes</text></g><!--class PapelUsuario--><g class="entity" data-qualified-name="PapelUsuario" data-source-line="10" id="ent0002"><rect fill="#F1F1F1" height="82.4141" rx="2.5" ry="2.5" style="stroke:#181818;stroke-width:0.5;" width="124.519" x="7" y="437.9669"/><ellipse cx="31.041" cy="451.9669" fill="#EB937F" rx="9" ry="9" style="stroke:#181818;stroke-width:1;"/><path d="M32.9317,455.9669 L27.9473,455.9669 L27.9473,447.9513 L32.9317,447.9513 L32.9317,449.3419 L29.5254,449.3419 L29.5254,451.0763 L32.6192,451.0763 L32.6192,452.4669 L29.5254,452.4669 L29.5254,454.5763 L32.9317,454.5763 L32.9317,455.9669 Z " fill="#000000"/><text fill="#000000" font-family="sans-serif" font-size="11" lengthAdjust="spacing" textLength="71.9834" x="45.4946" y="455.775">PapelUsuario</text><line style="stroke:#181818;stroke-width:0.5;" x1="8" x2="130.519" y1="465.9669" y2="465.9669"/><text fill="#000000" font-family="sans-serif" font-size="11" lengthAdjust="spacing" textLength="38.5913" x="13" y="480.1773">ALUNO</text><text fill="#000000" font-family="sans-serif" font-size="11" lengthAdjust="spacing" textLength="66.478" x="13" y="492.982">PROFESSOR</text><text fill="#000000" font-family="sans-serif" font-size="11" lengthAdjust="spacing" textLength="112.519" x="13" y="505.7867">EMPRESA_PARCEIRA</text><line style="stroke:#181818;stroke-width:0.5;" x1="8" x2="130.519" y1="512.3809" y2="512.3809"/></g><!--class TipoTransacao--><g class="entity" data-qualified-name="TipoTransacao" data-source-line="16" id="ent0003"><rect fill="#F1F1F1" height="69.6094" rx="2.5" ry="2.5" style="stroke:#181818;stroke-width:0.5;" width="157.2236" x="855.65" y="237.9369"/><ellipse cx="890.6062" cy="251.9369" fill="#EB937F" rx="9" ry="9" style="stroke:#181818;stroke-width:1;"/><path d="M892.4968,255.9369 L887.5124,255.9369 L887.5124,247.9213 L892.4968,247.9213 L892.4968,249.3119 L889.0906,249.3119 L889.0906,251.0463 L892.1843,251.0463 L892.1843,252.4369 L889.0906,252.4369 L889.0906,254.5463 L892.4968,254.5463 L892.4968,255.9369 Z " fill="#000000"/><text fill="#000000" font-family="sans-serif" font-size="11" lengthAdjust="spacing" textLength="80.4321" x="907.4853" y="255.745">TipoTransacao</text><line style="stroke:#181818;stroke-width:0.5;" x1="856.65" x2="1011.8736" y1="265.9369" y2="265.9369"/><text fill="#000000" font-family="sans-serif" font-size="11" lengthAdjust="spacing" textLength="145.2236" x="861.65" y="280.1473">TRANSFERENCIA_MOEDAS</text><text fill="#000000" font-family="sans-serif" font-size="11" lengthAdjust="spacing" textLength="51.2939" x="861.65" y="292.952">RESGATE</text><line style="stroke:#181818;stroke-width:0.5;" x1="856.65" x2="1011.8736" y1="299.5463" y2="299.5463"/></g><!--class Endereco--><g class="entity" data-qualified-name="Endereco" data-source-line="24" id="ent0004"><rect fill="#F1F1F1" height="95.2188" rx="2.5" ry="2.5" style="stroke:#181818;stroke-width:0.5;" width="119.9644" x="581.28" y="638.0069"/><ellipse cx="612.3811" cy="652.0069" fill="#ADD1B2" rx="9" ry="9" style="stroke:#181818;stroke-width:1;"/><path d="M613.6936,655.7725 Q613.3186,655.9756 612.8967,656.0694 Q612.4904,656.1631 612.0217,656.1631 Q610.4123,656.1631 609.5529,655.1006 Q608.6936,654.0225 608.6936,652.0069 Q608.6936,649.9756 609.5529,648.9131 Q610.4123,647.835 612.0217,647.835 Q612.4904,647.835 612.8967,647.9444 Q613.3186,648.0381 613.6936,648.2256 L613.6936,649.9913 Q613.2717,649.6163 612.8811,649.4444 Q612.5061,649.2725 612.0998,649.2725 Q611.2404,649.2725 610.7873,649.96 Q610.3498,650.6475 610.3498,652.0069 Q610.3498,653.3663 610.7873,654.0538 Q611.2404,654.7413 612.0998,654.7413 Q612.5061,654.7413 612.8811,654.5694 Q613.2717,654.3975 613.6936,654.0069 L613.6936,655.7725 Z " fill="#000000"/><text fill="#000000" font-family="sans-serif" font-size="11" lengthAdjust="spacing" textLength="51.7397" x="628.4035" y="655.815">Endereco</text><line style="stroke:#181818;stroke-width:0.5;" x1="582.28" x2="700.2444" y1="666.0069" y2="666.0069"/><text fill="#000000" font-family="sans-serif" font-size="11" lengthAdjust="spacing" textLength="107.9644" x="587.28" y="680.2173">+logradouro: string</text><text fill="#000000" font-family="sans-serif" font-size="11" lengthAdjust="spacing" textLength="84.5732" x="587.28" y="693.022">+cidade: string</text><text fill="#000000" font-family="sans-serif" font-size="11" lengthAdjust="spacing" textLength="85.2607" x="587.28" y="705.8267">+estado: string</text><text fill="#000000" font-family="sans-serif" font-size="11" lengthAdjust="spacing" textLength="67.7939" x="587.28" y="718.6314">+cep: string</text><line style="stroke:#181818;stroke-width:0.5;" x1="582.28" x2="700.2444" y1="725.2256" y2="725.2256"/></g><!--class Usuario--><g class="entity" data-qualified-name="Usuario" data-source-line="34" id="ent0005"><rect fill="#F1F1F1" height="120.8281" rx="2.5" ry="2.5" style="stroke:#181818;stroke-width:0.5;" width="209.3877" x="429.57" y="212.3269"/><ellipse cx="509.6122" cy="226.3269" fill="#A9DCDF" rx="9" ry="9" style="stroke:#181818;stroke-width:1;"/><path d="M508.9247,223.2644 L508.1747,226.5456 L509.6747,226.5456 L508.9247,223.2644 Z M507.956,221.8112 L509.8935,221.8112 L512.0654,229.8269 L510.4716,229.8269 L509.9716,227.8425 L507.8622,227.8425 L507.3779,229.8269 L505.7841,229.8269 L507.956,221.8112 Z " fill="#000000"/><text fill="#000000" font-family="sans-serif" font-size="11" font-style="italic" lengthAdjust="spacing" textLength="41.8032" x="527.1122" y="230.135">Usuario</text><line style="stroke:#181818;stroke-width:0.5;" x1="430.57" x2="637.9577" y1="240.3269" y2="240.3269"/><text fill="#000000" font-family="sans-serif" font-size="11" lengthAdjust="spacing" textLength="58.0347" x="435.57" y="254.5373">#id: string</text><text fill="#000000" font-family="sans-serif" font-size="11" lengthAdjust="spacing" textLength="78.332" x="435.57" y="267.342">#email: string</text><text fill="#000000" font-family="sans-serif" font-size="11" lengthAdjust="spacing" textLength="108.8936" x="435.57" y="280.1467">#senhaHash: string</text><text fill="#000000" font-family="sans-serif" font-size="11" lengthAdjust="spacing" textLength="118.9321" x="435.57" y="292.9514">#papel: PapelUsuario</text><text fill="#000000" font-family="sans-serif" font-size="11" lengthAdjust="spacing" textLength="94.4561" x="435.57" y="305.7561">#criadoEm: Date</text><line style="stroke:#181818;stroke-width:0.5;" x1="430.57" x2="637.9577" y1="312.3503" y2="312.3503"/><text fill="#000000" font-family="sans-serif" font-size="11" lengthAdjust="spacing" textLength="197.3877" x="435.57" y="326.5608">+autenticar(senha: string): boolean</text></g><!--class Instituicao--><g class="entity" data-qualified-name="Instituicao" data-source-line="43" id="ent0006"><rect fill="#F1F1F1" height="82.4141" rx="2.5" ry="2.5" style="stroke:#181818;stroke-width:0.5;" width="112.6221" x="870.95" y="644.4069"/><ellipse cx="896.301" cy="658.4069" fill="#ADD1B2" rx="9" ry="9" style="stroke:#181818;stroke-width:1;"/><path d="M897.6135,662.1725 Q897.2385,662.3756 896.8167,662.4694 Q896.4104,662.5631 895.9417,662.5631 Q894.3323,662.5631 893.4729,661.5006 Q892.6135,660.4225 892.6135,658.4069 Q892.6135,656.3756 893.4729,655.3131 Q894.3323,654.235 895.9417,654.235 Q896.4104,654.235 896.8167,654.3444 Q897.2385,654.4381 897.6135,654.6256 L897.6135,656.3913 Q897.1917,656.0163 896.801,655.8444 Q896.426,655.6725 896.0198,655.6725 Q895.1604,655.6725 894.7073,656.36 Q894.2698,657.0475 894.2698,658.4069 Q894.2698,659.7663 894.7073,660.4538 Q895.1604,661.1413 896.0198,661.1413 Q896.426,661.1413 896.801,660.9694 Q897.1917,660.7975 897.6135,660.4069 L897.6135,662.1725 Z " fill="#000000"/><text fill="#000000" font-family="sans-serif" font-size="11" lengthAdjust="spacing" textLength="57.1753" x="911.0457" y="662.215">Instituicao</text><line style="stroke:#181818;stroke-width:0.5;" x1="871.95" x2="982.5721" y1="672.4069" y2="672.4069"/><text fill="#000000" font-family="sans-serif" font-size="11" lengthAdjust="spacing" textLength="58.0347" x="876.95" y="686.6173">+id: string</text><text fill="#000000" font-family="sans-serif" font-size="11" lengthAdjust="spacing" textLength="79.1807" x="876.95" y="699.422">+nome: string</text><text fill="#000000" font-family="sans-serif" font-size="11" lengthAdjust="spacing" textLength="100.6221" x="876.95" y="712.2267">+descricao: string</text><line style="stroke:#181818;stroke-width:0.5;" x1="871.95" x2="982.5721" y1="718.8209" y2="718.8209"/></g><!--class Aluno--><g class="entity" data-qualified-name="Aluno" data-source-line="49" id="ent0007"><rect fill="#F1F1F1" height="172.0469" rx="2.5" ry="2.5" style="stroke:#181818;stroke-width:0.5;" width="304.7246" x="488.9" y="393.1569"/><ellipse cx="621.8851" cy="407.1569" fill="#ADD1B2" rx="9" ry="9" style="stroke:#181818;stroke-width:1;"/><path d="M623.1976,410.9225 Q622.8226,411.1256 622.4007,411.2194 Q621.9945,411.3131 621.5257,411.3131 Q619.9164,411.3131 619.057,410.2506 Q618.1976,409.1725 618.1976,407.1569 Q618.1976,405.1256 619.057,404.0631 Q619.9164,402.985 621.5257,402.985 Q621.9945,402.985 622.4007,403.0944 Q622.8226,403.1881 623.1976,403.3756 L623.1976,405.1413 Q622.7757,404.7663 622.3851,404.5944 Q622.0101,404.4225 621.6039,404.4225 Q620.7445,404.4225 620.2914,405.11 Q619.8539,405.7975 619.8539,407.1569 Q619.8539,408.5163 620.2914,409.2038 Q620.7445,409.8913 621.6039,409.8913 Q622.0101,409.8913 622.3851,409.7194 Q622.7757,409.5475 623.1976,409.1569 L623.1976,410.9225 Z " fill="#000000"/><text fill="#000000" font-family="sans-serif" font-size="11" lengthAdjust="spacing" textLength="31.2544" x="639.3851" y="410.965">Aluno</text><line style="stroke:#181818;stroke-width:0.5;" x1="489.9" x2="792.6246" y1="421.1569" y2="421.1569"/><text fill="#000000" font-family="sans-serif" font-size="11" lengthAdjust="spacing" textLength="79.1807" x="494.9" y="435.3673">+nome: string</text><text fill="#000000" font-family="sans-serif" font-size="11" lengthAdjust="spacing" textLength="64.8989" x="494.9" y="448.172">+cpf: string</text><text fill="#000000" font-family="sans-serif" font-size="11" lengthAdjust="spacing" textLength="59.501" x="494.9" y="460.9767">+rg: string</text><text fill="#000000" font-family="sans-serif" font-size="11" lengthAdjust="spacing" textLength="119.7163" x="494.9" y="473.7814">+endereco: Endereco</text><text fill="#000000" font-family="sans-serif" font-size="11" lengthAdjust="spacing" textLength="77.999" x="494.9" y="486.5861">+curso: string</text><text fill="#000000" font-family="sans-serif" font-size="11" lengthAdjust="spacing" textLength="131.0332" x="494.9" y="499.3908">+saldoMoedas: number</text><text fill="#000000" font-family="sans-serif" font-size="11" lengthAdjust="spacing" textLength="130.582" x="494.9" y="512.1954">+instituicao: Instituicao</text><line style="stroke:#181818;stroke-width:0.5;" x1="489.9" x2="792.6246" y1="518.7897" y2="518.7897"/><text fill="#000000" font-family="sans-serif" font-size="11" lengthAdjust="spacing" textLength="292.7246" x="494.9" y="533.0001">+resgatarVantagem(vantagem: Vantagem): Resgate</text><text fill="#000000" font-family="sans-serif" font-size="11" lengthAdjust="spacing" textLength="181.6934" x="494.9" y="545.8048">+consultarExtrato(): Transacao[]</text><text fill="#000000" font-family="sans-serif" font-size="11" lengthAdjust="spacing" textLength="197.522" x="494.9" y="558.6095">+deduzirSaldo(valor: number): void</text></g><!--class Professor--><g class="entity" data-qualified-name="Professor" data-source-line="62" id="ent0008"><rect fill="#F1F1F1" height="146.4375" rx="2.5" ry="2.5" style="stroke:#181818;stroke-width:0.5;" width="469.3271" x="828.6" y="405.9569"/><ellipse cx="1033.8935" cy="419.9569" fill="#ADD1B2" rx="9" ry="9" style="stroke:#181818;stroke-width:1;"/><path d="M1035.206,423.7225 Q1034.831,423.9256 1034.4091,424.0194 Q1034.0028,424.1131 1033.5341,424.1131 Q1031.9247,424.1131 1031.0653,423.0506 Q1030.206,421.9725 1030.206,419.9569 Q1030.206,417.9256 1031.0653,416.8631 Q1031.9247,415.785 1033.5341,415.785 Q1034.0028,415.785 1034.4091,415.8944 Q1034.831,415.9881 1035.206,416.1756 L1035.206,417.9413 Q1034.7841,417.5663 1034.3935,417.3944 Q1034.0185,417.2225 1033.6122,417.2225 Q1032.7528,417.2225 1032.2997,417.91 Q1031.8622,418.5975 1031.8622,419.9569 Q1031.8622,421.3163 1032.2997,422.0038 Q1032.7528,422.6913 1033.6122,422.6913 Q1034.0185,422.6913 1034.3935,422.5194 Q1034.7841,422.3475 1035.206,421.9569 L1035.206,423.7225 Z " fill="#000000"/><text fill="#000000" font-family="sans-serif" font-size="11" lengthAdjust="spacing" textLength="51.2402" x="1051.3935" y="423.765">Professor</text><line style="stroke:#181818;stroke-width:0.5;" x1="829.6" x2="1296.9271" y1="433.9569" y2="433.9569"/><text fill="#000000" font-family="sans-serif" font-size="11" lengthAdjust="spacing" textLength="79.1807" x="834.6" y="448.1673">+nome: string</text><text fill="#000000" font-family="sans-serif" font-size="11" lengthAdjust="spacing" textLength="64.8989" x="834.6" y="460.972">+cpf: string</text><text fill="#000000" font-family="sans-serif" font-size="11" lengthAdjust="spacing" textLength="126.543" x="834.6" y="473.7767">+departamento: string</text><text fill="#000000" font-family="sans-serif" font-size="11" lengthAdjust="spacing" textLength="130.582" x="834.6" y="486.5814">+instituicao: Instituicao</text><text fill="#000000" font-family="sans-serif" font-size="11" lengthAdjust="spacing" textLength="131.0332" x="834.6" y="499.3861">+saldoMoedas: number</text><line style="stroke:#181818;stroke-width:0.5;" x1="829.6" x2="1296.9271" y1="505.9803" y2="505.9803"/><text fill="#000000" font-family="sans-serif" font-size="11" lengthAdjust="spacing" textLength="457.3271" x="834.6" y="520.1908">+enviarMoedas(aluno: Aluno, valor: number, motivo: string): TransferenciaMoedas</text><text fill="#000000" font-family="sans-serif" font-size="11" lengthAdjust="spacing" textLength="205.1919" x="834.6" y="532.9954">+receberAporte(valor: number): void</text><text fill="#000000" font-family="sans-serif" font-size="11" lengthAdjust="spacing" textLength="181.6934" x="834.6" y="545.8001">+consultarExtrato(): Transacao[]</text></g><!--class EmpresaParceira--><g class="entity" data-qualified-name="EmpresaParceira" data-source-line="73" id="ent0009"><rect fill="#F1F1F1" height="108.0234" rx="2.5" ry="2.5" style="stroke:#181818;stroke-width:0.5;" width="287.5854" x="166.47" y="425.1669"/><ellipse cx="259.7923" cy="439.1669" fill="#ADD1B2" rx="9" ry="9" style="stroke:#181818;stroke-width:1;"/><path d="M261.1048,442.9325 Q260.7298,443.1356 260.3079,443.2294 Q259.9016,443.3231 259.4329,443.3231 Q257.8235,443.3231 256.9641,442.2606 Q256.1048,441.1825 256.1048,439.1669 Q256.1048,437.1356 256.9641,436.0731 Q257.8235,434.995 259.4329,434.995 Q259.9016,434.995 260.3079,435.1044 Q260.7298,435.1981 261.1048,435.3856 L261.1048,437.1513 Q260.6829,436.7763 260.2923,436.6044 Q259.9173,436.4325 259.511,436.4325 Q258.6516,436.4325 258.1985,437.12 Q257.761,437.8075 257.761,439.1669 Q257.761,440.5263 258.1985,441.2138 Q258.6516,441.9013 259.511,441.9013 Q259.9173,441.9013 260.2923,441.7294 Q260.6829,441.5575 261.1048,441.1669 L261.1048,442.9325 Z " fill="#000000"/><text fill="#000000" font-family="sans-serif" font-size="11" lengthAdjust="spacing" textLength="93.4409" x="277.2923" y="442.975">EmpresaParceira</text><line style="stroke:#181818;stroke-width:0.5;" x1="167.47" x2="453.0554" y1="453.1669" y2="453.1669"/><text fill="#000000" font-family="sans-serif" font-size="11" lengthAdjust="spacing" textLength="79.1807" x="172.47" y="467.3773">+nome: string</text><text fill="#000000" font-family="sans-serif" font-size="11" lengthAdjust="spacing" textLength="100.6221" x="172.47" y="480.182">+descricao: string</text><text fill="#000000" font-family="sans-serif" font-size="11" lengthAdjust="spacing" textLength="139.4873" x="172.47" y="492.9867">+vantagens: Vantagem[]</text><line style="stroke:#181818;stroke-width:0.5;" x1="167.47" x2="453.0554" y1="499.5809" y2="499.5809"/><text fill="#000000" font-family="sans-serif" font-size="11" lengthAdjust="spacing" textLength="275.5854" x="172.47" y="513.7914">+adicionarVantagem(vantagem: Vantagem): void</text><text fill="#000000" font-family="sans-serif" font-size="11" lengthAdjust="spacing" textLength="257.1465" x="172.47" y="526.5961">+removerVantagem(idVantagem: string): void</text></g><!--class Vantagem--><g class="entity" data-qualified-name="Vantagem" data-source-line="84" id="ent0010"><rect fill="#F1F1F1" height="120.8281" rx="2.5" ry="2.5" style="stroke:#181818;stroke-width:0.5;" width="143.5864" x="60.47" y="625.1969"/><ellipse cx="100.135" cy="639.1969" fill="#ADD1B2" rx="9" ry="9" style="stroke:#181818;stroke-width:1;"/><path d="M101.4475,642.9625 Q101.0725,643.1656 100.6507,643.2594 Q100.2444,643.3531 99.7757,643.3531 Q98.1663,643.3531 97.3069,642.2906 Q96.4475,641.2125 96.4475,639.1969 Q96.4475,637.1656 97.3069,636.1031 Q98.1663,635.025 99.7757,635.025 Q100.2444,635.025 100.6507,635.1344 Q101.0725,635.2281 101.4475,635.4156 L101.4475,637.1813 Q101.0257,636.8063 100.635,636.6344 Q100.26,636.4625 99.8538,636.4625 Q98.9944,636.4625 98.5413,637.15 Q98.1038,637.8375 98.1038,639.1969 Q98.1038,640.5563 98.5413,641.2438 Q98.9944,641.9313 99.8538,641.9313 Q100.26,641.9313 100.635,641.7594 Q101.0257,641.5875 101.4475,641.1969 L101.4475,642.9625 Z " fill="#000000"/><text fill="#000000" font-family="sans-serif" font-size="11" lengthAdjust="spacing" textLength="56.7563" x="117.635" y="643.005">Vantagem</text><line style="stroke:#181818;stroke-width:0.5;" x1="61.47" x2="203.0564" y1="653.1969" y2="653.1969"/><text fill="#000000" font-family="sans-serif" font-size="11" lengthAdjust="spacing" textLength="58.0347" x="66.47" y="667.4073">+id: string</text><text fill="#000000" font-family="sans-serif" font-size="11" lengthAdjust="spacing" textLength="79.1807" x="66.47" y="680.212">+nome: string</text><text fill="#000000" font-family="sans-serif" font-size="11" lengthAdjust="spacing" textLength="100.6221" x="66.47" y="693.0167">+descricao: string</text><text fill="#000000" font-family="sans-serif" font-size="11" lengthAdjust="spacing" textLength="86.6465" x="66.47" y="705.8214">+urlFoto: string</text><text fill="#000000" font-family="sans-serif" font-size="11" lengthAdjust="spacing" textLength="131.5864" x="66.47" y="718.6261">+custoMoedas: number</text><text fill="#000000" font-family="sans-serif" font-size="11" lengthAdjust="spacing" textLength="87.7583" x="66.47" y="731.4308">+ativa: boolean</text><line style="stroke:#181818;stroke-width:0.5;" x1="61.47" x2="203.0564" y1="738.025" y2="738.025"/></g><!--class Transacao--><g class="entity" data-qualified-name="Transacao" data-source-line="96" id="ent0011"><rect fill="#F1F1F1" height="108.0234" rx="2.5" ry="2.5" style="stroke:#181818;stroke-width:0.5;" width="129.9331" x="682.29" y="44.2969"/><ellipse cx="715.5349" cy="58.2969" fill="#A9DCDF" rx="9" ry="9" style="stroke:#181818;stroke-width:1;"/><path d="M714.8474,55.2344 L714.0974,58.5156 L715.5974,58.5156 L714.8474,55.2344 Z M713.8787,53.7813 L715.8162,53.7813 L717.9881,61.7969 L716.3943,61.7969 L715.8943,59.8125 L713.7849,59.8125 L713.3006,61.7969 L711.7068,61.7969 L713.8787,53.7813 Z " fill="#000000"/><text fill="#000000" font-family="sans-serif" font-size="11" font-style="italic" lengthAdjust="spacing" textLength="56.9443" x="732.0338" y="62.105">Transacao</text><line style="stroke:#181818;stroke-width:0.5;" x1="683.29" x2="811.2231" y1="72.2969" y2="72.2969"/><text fill="#000000" font-family="sans-serif" font-size="11" lengthAdjust="spacing" textLength="58.0347" x="688.29" y="86.5073">#id: string</text><text fill="#000000" font-family="sans-serif" font-size="11" lengthAdjust="spacing" textLength="86.9097" x="688.29" y="99.312">#valor: number</text><text fill="#000000" font-family="sans-serif" font-size="11" lengthAdjust="spacing" textLength="117.9331" x="688.29" y="112.1167">#tipo: TipoTransacao</text><text fill="#000000" font-family="sans-serif" font-size="11" lengthAdjust="spacing" textLength="110.7573" x="688.29" y="124.9214">#realizadaEm: Date</text><text fill="#000000" font-family="sans-serif" font-size="11" lengthAdjust="spacing" textLength="100.6221" x="688.29" y="137.7261">#descricao: string</text><line style="stroke:#181818;stroke-width:0.5;" x1="683.29" x2="811.2231" y1="144.3203" y2="144.3203"/></g><!--class TransferenciaMoedas--><g class="entity" data-qualified-name="TransferenciaMoedas" data-source-line="104" id="ent0012"><rect fill="#F1F1F1" height="82.4141" rx="2.5" ry="2.5" style="stroke:#181818;stroke-width:0.5;" width="145.874" x="674.32" y="231.5269"/><ellipse cx="687.32" cy="245.5269" fill="#ADD1B2" rx="9" ry="9" style="stroke:#181818;stroke-width:1;"/><path d="M688.6325,249.2925 Q688.2575,249.4956 687.8356,249.5894 Q687.4294,249.6831 686.9606,249.6831 Q685.3513,249.6831 684.4919,248.6206 Q683.6325,247.5425 683.6325,245.5269 Q683.6325,243.4956 684.4919,242.4331 Q685.3513,241.355 686.9606,241.355 Q687.4294,241.355 687.8356,241.4644 Q688.2575,241.5581 688.6325,241.7456 L688.6325,243.5113 Q688.2106,243.1363 687.82,242.9644 Q687.445,242.7925 687.0388,242.7925 Q686.1794,242.7925 685.7263,243.48 Q685.2888,244.1675 685.2888,245.5269 Q685.2888,246.8863 685.7263,247.5738 Q686.1794,248.2613 687.0388,248.2613 Q687.445,248.2613 687.82,248.0894 Q688.2106,247.9175 688.6325,247.5269 L688.6325,249.2925 Z " fill="#000000"/><text fill="#000000" font-family="sans-serif" font-size="11" lengthAdjust="spacing" textLength="117.874" x="699.32" y="249.335">TransferenciaMoedas</text><line style="stroke:#181818;stroke-width:0.5;" x1="675.32" x2="819.194" y1="259.5269" y2="259.5269"/><text fill="#000000" font-family="sans-serif" font-size="11" lengthAdjust="spacing" textLength="119.249" x="680.32" y="273.7373">+professor: Professor</text><text fill="#000000" font-family="sans-serif" font-size="11" lengthAdjust="spacing" textLength="78.144" x="680.32" y="286.542">+aluno: Aluno</text><text fill="#000000" font-family="sans-serif" font-size="11" lengthAdjust="spacing" textLength="86.0503" x="680.32" y="299.3467">+motivo: string</text><line style="stroke:#181818;stroke-width:0.5;" x1="675.32" x2="819.194" y1="305.9409" y2="305.9409"/></g><!--class Resgate--><g class="entity" data-qualified-name="Resgate" data-source-line="110" id="ent0013"><rect fill="#F1F1F1" height="95.2188" rx="2.5" ry="2.5" style="stroke:#181818;stroke-width:0.5;" width="140.917" x="253.8" y="225.1269"/><ellipse cx="298.0358" cy="239.1269" fill="#ADD1B2" rx="9" ry="9" style="stroke:#181818;stroke-width:1;"/><path d="M299.3483,242.8925 Q298.9733,243.0956 298.5515,243.1894 Q298.1452,243.2831 297.6765,243.2831 Q296.0671,243.2831 295.2077,242.2206 Q294.3483,241.1425 294.3483,239.1269 Q294.3483,237.0956 295.2077,236.0331 Q296.0671,234.955 297.6765,234.955 Q298.1452,234.955 298.5515,235.0644 Q298.9733,235.1581 299.3483,235.3456 L299.3483,237.1113 Q298.9265,236.7363 298.5358,236.5644 Q298.1608,236.3925 297.7546,236.3925 Q296.8952,236.3925 296.4421,237.08 Q296.0046,237.7675 296.0046,239.1269 Q296.0046,240.4863 296.4421,241.1738 Q296.8952,241.8613 297.7546,241.8613 Q298.1608,241.8613 298.5358,241.6894 Q298.9265,241.5175 299.3483,241.1269 L299.3483,242.8925 Z " fill="#000000"/><text fill="#000000" font-family="sans-serif" font-size="11" lengthAdjust="spacing" textLength="44.9453" x="315.5358" y="242.935">Resgate</text><line style="stroke:#181818;stroke-width:0.5;" x1="254.8" x2="393.717" y1="253.1269" y2="253.1269"/><text fill="#000000" font-family="sans-serif" font-size="11" lengthAdjust="spacing" textLength="78.144" x="259.8" y="267.3373">+aluno: Aluno</text><text fill="#000000" font-family="sans-serif" font-size="11" lengthAdjust="spacing" textLength="128.917" x="259.8" y="280.142">+vantagem: Vantagem</text><text fill="#000000" font-family="sans-serif" font-size="11" lengthAdjust="spacing" textLength="123.605" x="259.8" y="292.9467">+codigoCupom: string</text><text fill="#000000" font-family="sans-serif" font-size="11" lengthAdjust="spacing" textLength="115.8867" x="259.8" y="305.7514">+resgatadoEm: Date</text><line style="stroke:#181818;stroke-width:0.5;" x1="254.8" x2="393.717" y1="312.3456" y2="312.3456"/></g><!--reverse link Usuario to Aluno--><g class="link" data-entity-1="ent0005" data-entity-2="ent0007" data-link-type="extension" data-source-line="122" id="lnk14"><path codeLine="122" d="M563.93,351.5569 C563.93,370.1169 563.93,372.8769 563.93,392.7869" fill="none" id="Usuario-backto-Aluno" style="stroke:#181818;stroke-width:1;"/><polygon fill="none" points="563.93,333.5569,557.93,351.5569,569.93,351.5569,563.93,333.5569" style="stroke:#181818;stroke-width:1;"/></g><!--reverse link Usuario to Professor--><g class="link" data-entity-1="ent0005" data-entity-2="ent0008" data-link-type="extension" data-source-line="123" id="lnk15"><path codeLine="123" d="M657.08,324.0269 C744.76,324.0269 837.61,324.0269 837.61,324.0269 C837.61,324.0269 837.61,365.5869 837.61,405.6869" fill="none" id="Usuario-backto-Professor" style="stroke:#181818;stroke-width:1;"/><polygon fill="none" points="639.08,324.0269,657.08,330.0269,657.08,318.0269,639.08,324.0269" style="stroke:#181818;stroke-width:1;"/></g><!--reverse link Usuario to EmpresaParceira--><g class="link" data-entity-1="ent0005" data-entity-2="ent0009" data-link-type="extension" data-source-line="124" id="lnk16"><path codeLine="124" d="M441.81,351.5569 C441.81,380.4569 441.81,396.7269 441.81,424.7569" fill="none" id="Usuario-backto-EmpresaParceira" style="stroke:#181818;stroke-width:1;"/><polygon fill="none" points="441.81,333.5569,435.81,351.5569,447.81,351.5569,441.81,333.5569" style="stroke:#181818;stroke-width:1;"/></g><!--reverse link Transacao to TransferenciaMoedas--><g class="link" data-entity-1="ent0011" data-entity-2="ent0012" data-link-type="extension" data-source-line="125" id="lnk17"><path codeLine="125" d="M747.26,170.5469 C747.26,195.9469 747.26,207.7269 747.26,231.2869" fill="none" id="Transacao-backto-TransferenciaMoedas" style="stroke:#181818;stroke-width:1;"/><polygon fill="none" points="747.26,152.5469,741.26,170.5469,753.26,170.5469,747.26,152.5469" style="stroke:#181818;stroke-width:1;"/></g><!--reverse link Transacao to Resgate--><g class="link" data-entity-1="ent0011" data-entity-2="ent0013" data-link-type="extension" data-source-line="126" id="lnk18"><path codeLine="126" d="M664.09,99.0269 C545.44,99.0269 324.26,99.0269 324.26,99.0269 C324.26,99.0269 324.26,173.3969 324.26,224.8069" fill="none" id="Transacao-backto-Resgate" style="stroke:#181818;stroke-width:1;"/><polygon fill="none" points="682.09,99.0269,664.09,93.0269,664.09,105.0269,682.09,99.0269" style="stroke:#181818;stroke-width:1;"/></g><!--reverse link Aluno to Endereco--><g class="link" data-entity-1="ent0007" data-entity-2="ent0004" data-link-type="composition" data-source-line="129" id="lnk19"><path codeLine="129" d="M641.26,577.5269 C641.26,602.1669 641.26,616.1269 641.26,637.5769" fill="none" id="Aluno-backto-Endereco" style="stroke:#181818;stroke-width:1;"/><polygon fill="#181818" points="641.26,565.5269,637.26,571.5269,641.26,577.5269,645.26,571.5269,641.26,565.5269" style="stroke:#181818;stroke-width:1;"/><text fill="#000000" font-family="sans-serif" font-size="11" lengthAdjust="spacing" textLength="41.5454" x="599.26" y="598.7573">cont&#233;m</text><text fill="#000000" font-family="sans-serif" font-size="11" lengthAdjust="spacing" textLength="6.9985" x="635.0527" y="583.4181">1</text><text fill="#000000" font-family="sans-serif" font-size="11" lengthAdjust="spacing" textLength="6.9985" x="634.8767" y="627.5742">1</text></g><!--link Aluno to Instituicao--><g class="link" data-entity-1="ent0007" data-entity-2="ent0006" data-link-type="dependency" data-source-line="130" id="lnk20"><path codeLine="130" d="M794,559.0269 C853.86,559.0269 908.49,559.0269 908.49,559.0269 C908.49,559.0269 908.49,601.2469 908.49,638.1669" fill="none" id="Aluno-to-Instituicao" style="stroke:#181818;stroke-width:1;"/><polygon fill="#181818" points="908.49,644.1669,912.49,635.1669,908.49,639.1669,904.49,635.1669,908.49,644.1669" style="stroke:#181818;stroke-width:1;"/><text fill="#000000" font-family="sans-serif" font-size="11" lengthAdjust="spacing" textLength="86.856" x="806.81" y="570.2373">matriculado em</text><text fill="#000000" font-family="sans-serif" font-size="11" lengthAdjust="spacing" textLength="19.4917" x="801.4771" y="560.9554">0..*</text><text fill="#000000" font-family="sans-serif" font-size="11" lengthAdjust="spacing" textLength="6.9985" x="898.568" y="633.7035">1</text></g><!--link Professor to Instituicao--><g class="link" data-entity-1="ent0008" data-entity-2="ent0006" data-link-type="dependency" data-source-line="131" id="lnk21"><path codeLine="131" d="M946.03,552.8269 C946.03,583.5169 946.03,612.0069 946.03,638.1469" fill="none" id="Professor-to-Instituicao" style="stroke:#181818;stroke-width:1;"/><polygon fill="#181818" points="946.03,644.1469,950.03,635.1469,946.03,639.1469,942.03,635.1469,946.03,644.1469" style="stroke:#181818;stroke-width:1;"/><text fill="#000000" font-family="sans-serif" font-size="11" lengthAdjust="spacing" textLength="59.3774" x="886.03" y="595.6973">pertence a</text><text fill="#000000" font-family="sans-serif" font-size="11" lengthAdjust="spacing" textLength="19.4917" x="914.9741" y="570.6674">0..*</text><text fill="#000000" font-family="sans-serif" font-size="11" lengthAdjust="spacing" textLength="6.9985" x="943.0295" y="633.6798">1</text></g><!--reverse link EmpresaParceira to Vantagem--><g class="link" data-entity-1="ent0009" data-entity-2="ent0010" data-link-type="composition" data-source-line="132" id="lnk22"><path codeLine="132" d="M185.26,545.6869 C185.26,573.7569 185.26,596.0669 185.26,624.9769" fill="none" id="EmpresaParceira-backto-Vantagem" style="stroke:#181818;stroke-width:1;"/><polygon fill="#181818" points="185.26,533.6869,181.26,539.6869,185.26,545.6869,189.26,539.6869,185.26,533.6869" style="stroke:#181818;stroke-width:1;"/><text fill="#000000" font-family="sans-serif" font-size="11" lengthAdjust="spacing" textLength="41.4756" x="143.26" y="576.5373">oferece</text><text fill="#000000" font-family="sans-serif" font-size="11" lengthAdjust="spacing" textLength="6.9985" x="163.7205" y="551.3208">1</text><text fill="#000000" font-family="sans-serif" font-size="11" lengthAdjust="spacing" textLength="19.4917" x="171.8645" y="614.7014">0..*</text></g><!--link TransferenciaMoedas to Professor--><g class="link" data-entity-1="ent0012" data-entity-2="ent0008" data-link-type="dependency" data-source-line="134" id="lnk23"><path codeLine="134" d="M820.52,273.0269 C835.42,273.0269 846.63,273.0269 846.63,273.0269 C846.63,273.0269 846.63,340.4169 846.63,399.6269" fill="none" id="TransferenciaMoedas-to-Professor" style="stroke:#181818;stroke-width:1;"/><polygon fill="#181818" points="846.63,405.6269,850.63,396.6269,846.63,400.6269,842.63,396.6269,846.63,405.6269" style="stroke:#181818;stroke-width:1;"/><text fill="#000000" font-family="sans-serif" font-size="11" lengthAdjust="spacing" textLength="65.5005" x="780.63" y="337.4773">enviada por</text><text fill="#000000" font-family="sans-serif" font-size="11" lengthAdjust="spacing" textLength="19.4917" x="828.1724" y="270.7483">0..*</text><text fill="#000000" font-family="sans-serif" font-size="11" lengthAdjust="spacing" textLength="6.9985" x="816.6622" y="395.1807">1</text></g><!--link TransferenciaMoedas to Aluno--><g class="link" data-entity-1="ent0012" data-entity-2="ent0007" data-link-type="dependency" data-source-line="135" id="lnk24"><path codeLine="135" d="M733.97,314.0169 C733.97,336.6069 733.97,359.4869 733.97,386.7469" fill="none" id="TransferenciaMoedas-to-Aluno" style="stroke:#181818;stroke-width:1;"/><polygon fill="#181818" points="733.97,392.7469,737.97,383.7469,733.97,387.7469,729.97,383.7469,733.97,392.7469" style="stroke:#181818;stroke-width:1;"/><text fill="#000000" font-family="sans-serif" font-size="11" lengthAdjust="spacing" textLength="69.5986" x="663.97" y="350.5973">recebida por</text><text fill="#000000" font-family="sans-serif" font-size="11" lengthAdjust="spacing" textLength="19.4917" x="711.2366" y="332.1252">0..*</text><text fill="#000000" font-family="sans-serif" font-size="11" lengthAdjust="spacing" textLength="6.9985" x="736.286" y="382.4732">1</text></g><!--link Resgate to Aluno--><g class="link" data-entity-1="ent0013" data-entity-2="ent0007" data-link-type="dependency" data-source-line="136" id="lnk25"><path codeLine="136" d="M324.26,320.7569 C324.26,360.3469 324.26,410.0269 324.26,410.0269 C324.26,410.0269 401.59,410.0269 482.79,410.0269" fill="none" id="Resgate-to-Aluno" style="stroke:#181818;stroke-width:1;"/><polygon fill="#181818" points="488.79,410.0269,479.79,406.0269,483.79,410.0269,479.79,414.0269,488.79,410.0269" style="stroke:#181818;stroke-width:1;"/><text fill="#000000" font-family="sans-serif" font-size="11" lengthAdjust="spacing" textLength="72.1016" x="288.89" y="407.2373">realizado por</text><text fill="#000000" font-family="sans-serif" font-size="11" lengthAdjust="spacing" textLength="19.4917" x="303.9588" y="338.6206">0..*</text><text fill="#000000" font-family="sans-serif" font-size="11" lengthAdjust="spacing" textLength="6.9985" x="473.8306" y="403.9158">1</text></g><!--link Resgate to Vantagem--><g class="link" data-entity-1="ent0013" data-entity-2="ent0010" data-link-type="dependency" data-source-line="137" id="lnk26"><path codeLine="137" d="M253.48,273.0269 C204.83,273.0269 148.99,273.0269 148.99,273.0269 C148.99,273.0269 148.99,503.9669 148.99,618.7369" fill="none" id="Resgate-to-Vantagem" style="stroke:#181818;stroke-width:1;"/><polygon fill="#181818" points="148.99,624.7369,152.99,615.7369,148.99,619.7369,144.99,615.7369,148.99,624.7369" style="stroke:#181818;stroke-width:1;"/><text fill="#000000" font-family="sans-serif" font-size="11" lengthAdjust="spacing" textLength="41.7979" x="106.99" y="393.8473">resgata</text><text fill="#000000" font-family="sans-serif" font-size="11" lengthAdjust="spacing" textLength="19.4917" x="226.2266" y="270.69">0..*</text><text fill="#000000" font-family="sans-serif" font-size="11" lengthAdjust="spacing" textLength="6.9985" x="144.8127" y="614.4306">1</text></g><!--link Usuario to PapelUsuario--><g class="link" data-entity-1="ent0005" data-entity-2="ent0002" data-link-type="dependency" data-source-line="139" id="lnk27"><path codeLine="139" d="M429.32,327.0269 C292.18,327.0269 69.26,327.0269 69.26,327.0269 C69.26,327.0269 69.26,386.5469 69.26,431.5969" fill="none" id="Usuario-to-PapelUsuario" style="stroke:#181818;stroke-width:1;"/><polygon fill="#181818" points="69.26,437.5969,73.26,428.5969,69.26,432.5969,65.26,428.5969,69.26,437.5969" style="stroke:#181818;stroke-width:1;"/></g><!--link Transacao to TipoTransacao--><g class="link" data-entity-1="ent0011" data-entity-2="ent0003" data-link-type="dependency" data-source-line="140" id="lnk28"><path codeLine="140" d="M812.66,99.0269 C866.59,99.0269 934.26,99.0269 934.26,99.0269 C934.26,99.0269 934.26,180.8269 934.26,231.5869" fill="none" id="Transacao-to-TipoTransacao" style="stroke:#181818;stroke-width:1;"/><polygon fill="#181818" points="934.26,237.5869,938.26,228.5869,934.26,232.5869,930.26,228.5869,934.26,237.5869" style="stroke:#181818;stroke-width:1;"/></g><?plantuml-src pLVDRjj64BxpAHRoeMuS1_6LA0eGDjqOY2s1SdmfYc2q7ClRaBl4xb98t0R8G-GTWXvwx1FeJV8a7UxoRoNPDNgH0GEoXZFB-Vdc-rPMs0BPN1YB9R0SsQN275XgR9s3jA9WtxzyPMS2bXgymsa1ng298lD1o0h8p7XZIgpLOb5RlE1ApiKzijSZbq98j9ygP4hREpLwaECjr8KzLzAwe9EJAFg1VV_wPLz_z7QMohf43Ujlwt-eqlscWvGBcq65nJjJWnQA_H4nbhnzTpMbprasFK_dysb6_wUNiooT9-zdINQQNcH9z3doqTUYKjSQf04EFlmwIwxcvscMNfrU9Eylf-bPCYSpXV-INATDuDvdC5tyZbOrYBk1Gkaz9-GWJhZ8KIFtFJnYXQAjo5MjLSmCeLykdPcB778CJ6WiEOPUMFNVFpyBp5kNjsbQVgRAzTzIg3sd1Gjg473h6OQD5-20YNpKpmD6_2MAm69Gti4RC7U1jMfMAGusojcv5ZIYj8pP6LXq8m9YC-eA1ttepkhE-J5c2wKA1DbCpkTs8OqLjXRTXXs5-HqngSeG4zHgUYVvZs7W3qkAMdR7RCNnwZRuhfSXr5gCnZrQVLIjJGX00qMk7DsRc15DB53xl8TAud5P_cLebc11tv0um1BBmrNxJymw4tKdSrw-YQG6XWWUTFgHPcdL8JtloUZNtzfMvFMzqFCc8pgHrhtBY9nNIkH3QsPQtQ8nIZ-rFJcIq5WeQP9X_O_M-L1pKAu4QF_W49ennNvQBrcGzqjMAYjMQWGPL_GjJKHo0Vw4jgKSAIAfI1fnT_LFwMFVeRIiQ4em0yrHQ7YeJzlmQwpjEAKPvjdE27B1XPB_DVe-NusbMk7WBVARth_lIJVRlRDVbzkpa9akcVzD98srriMvse0yhutTXMeWg490QdiVY8VsixY1RQXGU9FQqg5WWPt5qlKh3YzXpguH2d4FEOn4v-0nMTZ182r4geuLuu4W_MH75EKC8IqDPxUKtPwt5RQzwoqfvMAfJkjAbQ4cUPaOwUbpm5I61JWESsAmRrZHwz_GZmov_WPHTxFvwS_ZuxRhWMaOQc3UeFfeWAPxl4jnDbmwfQPa4ZgV_DgLyrUGoSc4lI2tvhE__CQD5jdrNsNdzFhLgnSJTdpyi_CRtuHYDYc1OC7hWi10TxH9D0Zuut4LaXnAZWmcqQQazMdv4tg-f33LrCjn4aMxjcNZbKCk5EcadNxxaWvFdXBiYwT09-2YY-mMwM5ll_NgKVTnIUqoKKdTy1klu08xJBLv553Dlm00?></g></svg>