<svg xmlns="http://www.w3.org/2000/svg" xmlns:xlink="http://www.w3.org/1999/xlink" contentStyleType="text/css" data-diagram-type="DESCRIPTION" height="418px" preserveAspectRatio="none" style="width:2615px;height:418px;background:#FFFFFF;" version="1.1" viewBox="0 0 2615 418" width="2615px" zoomAndPan="magnify"><?plantuml 1.2026.4beta2?><defs/><g><g class="title" data-source-line="1"><text fill="#000000" font-family="sans-serif" font-size="14" font-weight="700" lengthAdjust="spacing" textLength="467.7285" x="1070.1357" y="22.9951">Sistema de Moeda Estudantil &#8212; Diagrama de Componentes</text></g><!--cluster FE--><g class="cluster" data-qualified-name="FE" data-source-line="19" id="ent0002"><polygon fill="#F8F8F8" points="16,185.9369,26,175.9369,586,175.9369,586,375.8569,576,385.8569,16,385.8569,16,185.9369" style="stroke:#555555;stroke-width:1;"/><line style="stroke:#555555;stroke-width:1;" x1="576" x2="586" y1="185.9369" y2="175.9369"/><line style="stroke:#555555;stroke-width:1;" x1="16" x2="576" y1="185.9369" y2="185.9369"/><line style="stroke:#555555;stroke-width:1;" x1="576" x2="576" y1="185.9369" y2="385.8569"/><text fill="#000000" font-family="sans-serif" font-size="10" font-weight="700" lengthAdjust="spacing" textLength="213.7549" x="190.1226" y="198.2191">Frontend  (React + Vite + TypeScript)</text></g><!--cluster HTTP_Layer--><g class="cluster" data-qualified-name="HTTP_Layer" data-source-line="36" id="ent0011"><polygon fill="#F8F8F8" points="652,177.9369,662,167.9369,1327,167.9369,1327,383.8569,1317,393.8569,652,393.8569,652,177.9369" style="stroke:#555555;stroke-width:1;"/><line style="stroke:#555555;stroke-width:1;" x1="1317" x2="1327" y1="177.9369" y2="167.9369"/><line style="stroke:#555555;stroke-width:1;" x1="652" x2="1317" y1="177.9369" y2="177.9369"/><line style="stroke:#555555;stroke-width:1;" x1="1317" x2="1317" y1="177.9369" y2="393.8569"/><text fill="#000000" font-family="sans-serif" font-size="10" font-weight="700" lengthAdjust="spacing" textLength="195.8447" x="887.5776" y="190.2191">Camada HTTP  (Node.js + Express)</text></g><!--cluster SVC_Layer--><g class="cluster" data-qualified-name="SVC_Layer" data-source-line="59" id="ent0026"><polygon fill="#F8F8F8" points="1359,191.7569,1369,181.7569,1903,181.7569,1903,254.3969,1893,264.3969,1359,264.3969,1359,191.7569" style="stroke:#555555;stroke-width:1;"/><line style="stroke:#555555;stroke-width:1;" x1="1893" x2="1903" y1="191.7569" y2="181.7569"/><line style="stroke:#555555;stroke-width:1;" x1="1359" x2="1893" y1="191.7569" y2="191.7569"/><line style="stroke:#555555;stroke-width:1;" x1="1893" x2="1893" y1="191.7569" y2="264.3969"/><text fill="#000000" font-family="sans-serif" font-size="10" font-weight="700" lengthAdjust="spacing" textLength="232.5928" x="1510.7036" y="204.0391">Camada de Servi&#231;os  (L&#243;gica de Neg&#243;cio)</text></g><!--cluster REPO_Layer--><g class="cluster" data-qualified-name="REPO_Layer" data-source-line="79" id="ent0037"><polygon fill="#F8F8F8" points="1778,53.2969,1788,43.2969,2590,43.2969,2590,115.9369,2580,125.9369,1778,125.9369,1778,53.2969" style="stroke:#555555;stroke-width:1;"/><line style="stroke:#555555;stroke-width:1;" x1="2580" x2="2590" y1="53.2969" y2="43.2969"/><line style="stroke:#555555;stroke-width:1;" x1="1778" x2="2580" y1="53.2969" y2="53.2969"/><line style="stroke:#555555;stroke-width:1;" x1="2580" x2="2580" y1="53.2969" y2="125.9369"/><text fill="#000000" font-family="sans-serif" font-size="10" font-weight="700" lengthAdjust="spacing" textLength="240.8545" x="2059.5728" y="65.5791">Camada de Reposit&#243;rios  (Acesso a Dados)</text></g><!--cluster Ext--><g class="cluster" data-qualified-name="Ext" data-source-line="93" id="ent0044"><polygon fill="#F8F8F8" points="1927,185.9369,1937,175.9369,2177,175.9369,2177,380.8569,2167,390.8569,1927,390.8569,1927,185.9369" style="stroke:#555555;stroke-width:1;"/><line style="stroke:#555555;stroke-width:1;" x1="2167" x2="2177" y1="185.9369" y2="175.9369"/><line style="stroke:#555555;stroke-width:1;" x1="1927" x2="2167" y1="185.9369" y2="185.9369"/><line style="stroke:#555555;stroke-width:1;" x1="2167" x2="2167" y1="185.9369" y2="390.8569"/><text fill="#000000" font-family="sans-serif" font-size="10" font-weight="700" lengthAdjust="spacing" textLength="100.8105" x="1997.5947" y="198.2191">Servi&#231;os Externos</text></g><!--entity Modulos--><g class="entity" data-qualified-name="FE.Modulos" data-source-line="20" id="ent0003"><rect fill="#F1F1F1" height="43.2813" rx="2.5" ry="2.5" style="stroke:#777777;stroke-width:0.5;" width="298.5498" x="119.73" y="210.9369"/><text fill="#000000" font-family="sans-serif" font-size="10" lengthAdjust="spacing" textLength="136.2158" x="129.73" y="230.2191">M&#243;dulos de Funcionalidade</text><text fill="#000000" font-family="sans-serif" font-size="10" lengthAdjust="spacing" textLength="278.5498" x="129.73" y="241.8597">auth | aluno | professor | empresa | vantagens | extrato</text></g><!--entity AuthCtx--><g class="entity" data-qualified-name="FE.AuthCtx" data-source-line="21" id="ent0004"><rect fill="#F1F1F1" height="31.6406" rx="2.5" ry="2.5" style="stroke:#777777;stroke-width:0.5;" width="149.9854" x="194.01" y="338.2169"/><text fill="#000000" font-family="sans-serif" font-size="10" lengthAdjust="spacing" textLength="129.9854" x="204.01" y="357.4991">Contexto de Autentica&#231;&#227;o</text></g><!--entity UIShared--><g class="entity" data-qualified-name="FE.UIShared" data-source-line="22" id="ent0005"><rect fill="#F1F1F1" height="31.6406" rx="2.5" ry="2.5" style="stroke:#777777;stroke-width:0.5;" width="185.0928" x="384.45" y="338.2169"/><text fill="#000000" font-family="sans-serif" font-size="10" lengthAdjust="spacing" textLength="165.0928" x="394.45" y="357.4991">Componentes UI Compartilhados</text></g><!--entity HTTPCliente--><g class="entity" data-qualified-name="FE.HTTPCliente" data-source-line="23" id="ent0006"><rect fill="#F1F1F1" height="31.6406" rx="2.5" ry="2.5" style="stroke:#777777;stroke-width:0.5;" width="121.1816" x="32.41" y="338.2169"/><text fill="#000000" font-family="sans-serif" font-size="10" lengthAdjust="spacing" textLength="101.1816" x="42.41" y="357.4991">Cliente HTTP (axios)</text></g><!--entity MidJWT--><g class="entity" data-qualified-name="HTTP_Layer.MidJWT" data-source-line="37" id="ent0012"><rect fill="#F1F1F1" height="31.6406" rx="2.5" ry="2.5" style="stroke:#777777;stroke-width:0.5;" width="99.7266" x="700.14" y="216.7569"/><text fill="#000000" font-family="sans-serif" font-size="10" lengthAdjust="spacing" textLength="79.7266" x="710.14" y="236.0391">Middleware JWT</text></g><!--entity MidVal--><g class="entity" data-qualified-name="HTTP_Layer.MidVal" data-source-line="38" id="ent0013"><rect fill="#F1F1F1" height="43.2813" rx="2.5" ry="2.5" style="stroke:#777777;stroke-width:0.5;" width="129.5264" x="840.24" y="210.9369"/><text fill="#000000" font-family="sans-serif" font-size="10" lengthAdjust="spacing" textLength="109.5264" x="850.24" y="230.2191">Middleware Valida&#231;&#227;o</text><text fill="#000000" font-family="sans-serif" font-size="10" lengthAdjust="spacing" textLength="25.5176" x="850.24" y="241.8597">(zod)</text></g><!--entity CAuth--><g class="entity" data-qualified-name="HTTP_Layer.CAuth" data-source-line="39" id="ent0014"><rect fill="#F1F1F1" height="31.6406" rx="2.5" ry="2.5" style="stroke:#777777;stroke-width:0.5;" width="102.5098" x="1106.75" y="338.2169"/><text fill="#000000" font-family="sans-serif" font-size="10" lengthAdjust="spacing" textLength="82.5098" x="1116.75" y="357.4991">ControladorAuth</text></g><!--entity CAluno--><g class="entity" data-qualified-name="HTTP_Layer.CAluno" data-source-line="40" id="ent0015"><rect fill="#F1F1F1" height="31.6406" rx="2.5" ry="2.5" style="stroke:#777777;stroke-width:0.5;" width="107.4854" x="866.26" y="338.2169"/><text fill="#000000" font-family="sans-serif" font-size="10" lengthAdjust="spacing" textLength="87.4854" x="876.26" y="357.4991">ControladorAluno</text></g><!--entity CProf--><g class="entity" data-qualified-name="HTTP_Layer.CProf" data-source-line="41" id="ent0016"><rect fill="#F1F1F1" height="31.6406" rx="2.5" ry="2.5" style="stroke:#777777;stroke-width:0.5;" width="125.6543" x="700.17" y="338.2169"/><text fill="#000000" font-family="sans-serif" font-size="10" lengthAdjust="spacing" textLength="105.6543" x="710.17" y="357.4991">ControladorProfessor</text></g><!--entity CEmpresa--><g class="entity" data-qualified-name="HTTP_Layer.CEmpresa" data-source-line="42" id="ent0017"><rect fill="#F1F1F1" height="31.6406" rx="2.5" ry="2.5" style="stroke:#777777;stroke-width:0.5;" width="123.0811" x="1009.46" y="216.7569"/><text fill="#000000" font-family="sans-serif" font-size="10" lengthAdjust="spacing" textLength="103.0811" x="1019.46" y="236.0391">ControladorEmpresa</text></g><!--entity CVant--><g class="entity" data-qualified-name="HTTP_Layer.CVant" data-source-line="43" id="ent0018"><rect fill="#F1F1F1" height="31.6406" rx="2.5" ry="2.5" style="stroke:#777777;stroke-width:0.5;" width="130.6689" x="1172.67" y="216.7569"/><text fill="#000000" font-family="sans-serif" font-size="10" lengthAdjust="spacing" textLength="110.6689" x="1182.67" y="236.0391">ControladorVantagem</text></g><!--entity SvcAuth--><g class="entity" data-qualified-name="SVC_Layer.SvcAuth" data-source-line="60" id="ent0027"><rect fill="#F1F1F1" height="31.6406" rx="2.5" ry="2.5" style="stroke:#777777;stroke-width:0.5;" width="80.3613" x="1806.82" y="216.7569"/><text fill="#000000" font-family="sans-serif" font-size="10" lengthAdjust="spacing" textLength="60.3613" x="1816.82" y="236.0391">ServicoAuth</text></g><!--entity SvcMoeda--><g class="entity" data-qualified-name="SVC_Layer.SvcMoeda" data-source-line="61" id="ent0028"><rect fill="#F1F1F1" height="31.6406" rx="2.5" ry="2.5" style="stroke:#777777;stroke-width:0.5;" width="90.2979" x="1522.85" y="216.7569"/><text fill="#000000" font-family="sans-serif" font-size="10" lengthAdjust="spacing" textLength="70.2979" x="1532.85" y="236.0391">ServicoMoeda</text></g><!--entity SvcVantagem--><g class="entity" data-qualified-name="SVC_Layer.SvcVantagem" data-source-line="62" id="ent0029"><rect fill="#F1F1F1" height="31.6406" rx="2.5" ry="2.5" style="stroke:#777777;stroke-width:0.5;" width="108.5205" x="1374.74" y="216.7569"/><text fill="#000000" font-family="sans-serif" font-size="10" lengthAdjust="spacing" textLength="88.5205" x="1384.74" y="236.0391">ServicoVantagem</text></g><!--entity SvcNotif--><g class="entity" data-qualified-name="SVC_Layer.SvcNotif" data-source-line="63" id="ent0030"><rect fill="#F1F1F1" height="31.6406" rx="2.5" ry="2.5" style="stroke:#777777;stroke-width:0.5;" width="112.8906" x="1653.55" y="216.7569"/><text fill="#000000" font-family="sans-serif" font-size="10" lengthAdjust="spacing" textLength="92.8906" x="1663.55" y="236.0391">ServicoNotificacao</text></g><!--entity RAl--><g class="entity" data-qualified-name="REPO_Layer.RAl" data-source-line="80" id="ent0038"><rect fill="#F1F1F1" height="31.6406" rx="2.5" ry="2.5" style="stroke:#777777;stroke-width:0.5;" width="105.0146" x="1794.49" y="78.2969"/><text fill="#000000" font-family="sans-serif" font-size="10" lengthAdjust="spacing" textLength="85.0146" x="1804.49" y="97.5791">RepositorioAluno</text></g><!--entity RPr--><g class="entity" data-qualified-name="REPO_Layer.RPr" data-source-line="81" id="ent0039"><rect fill="#F1F1F1" height="31.6406" rx="2.5" ry="2.5" style="stroke:#777777;stroke-width:0.5;" width="123.1836" x="1939.41" y="78.2969"/><text fill="#000000" font-family="sans-serif" font-size="10" lengthAdjust="spacing" textLength="103.1836" x="1949.41" y="97.5791">RepositorioProfessor</text></g><!--entity RTr--><g class="entity" data-qualified-name="REPO_Layer.RTr" data-source-line="82" id="ent0040"><rect fill="#F1F1F1" height="31.6406" rx="2.5" ry="2.5" style="stroke:#777777;stroke-width:0.5;" width="145.1758" x="2102.41" y="78.2969"/><text fill="#000000" font-family="sans-serif" font-size="10" lengthAdjust="spacing" textLength="125.1758" x="2112.41" y="97.5791">RepositorioTransferencia</text></g><!--entity RVa--><g class="entity" data-qualified-name="REPO_Layer.RVa" data-source-line="83" id="ent0041"><rect fill="#F1F1F1" height="31.6406" rx="2.5" ry="2.5" style="stroke:#777777;stroke-width:0.5;" width="128.1982" x="2287.9" y="78.2969"/><text fill="#000000" font-family="sans-serif" font-size="10" lengthAdjust="spacing" textLength="108.1982" x="2297.9" y="97.5791">RepositorioVantagem</text></g><!--entity RRe--><g class="entity" data-qualified-name="REPO_Layer.RRe" data-source-line="84" id="ent0042"><rect fill="#F1F1F1" height="31.6406" rx="2.5" ry="2.5" style="stroke:#777777;stroke-width:0.5;" width="117.4609" x="2456.27" y="78.2969"/><text fill="#000000" font-family="sans-serif" font-size="10" lengthAdjust="spacing" textLength="97.4609" x="2466.27" y="97.5791">RepositorioResgate</text></g><!--entity DB--><g class="entity" data-qualified-name="Ext.DB" data-source-line="94" id="ent0045"><path d="M1943.16,222.2569 C1943.16,212.2569 1982.0003,212.2569 1982.0003,212.2569 C1982.0003,212.2569 2020.8407,212.2569 2020.8407,222.2569 L2020.8407,242.8975 C2020.8407,252.8975 1982.0003,252.8975 1982.0003,252.8975 C1982.0003,252.8975 1943.16,252.8975 1943.16,242.8975 L1943.16,222.2569" fill="#F1F1F1" style="stroke:#181818;stroke-width:0.5;"/><path d="M1943.16,222.2569 C1943.16,232.2569 1982.0003,232.2569 1982.0003,232.2569 C1982.0003,232.2569 2020.8407,232.2569 2020.8407,222.2569" fill="none" style="stroke:#181818;stroke-width:0.5;"/><text fill="#000000" font-family="sans-serif" font-size="10" lengthAdjust="spacing" textLength="57.6807" x="1953.16" y="245.5391">PostgreSQL</text></g><!--entity Email--><g class="entity" data-qualified-name="Ext.Email" data-source-line="95" id="ent0046"><rect fill="#F1F1F1" height="43.2813" rx="2.5" ry="2.5" style="stroke:#777777;stroke-width:0.5;" width="100.0342" x="2060.98" y="210.9369"/><text fill="#000000" font-family="sans-serif" font-size="10" lengthAdjust="spacing" textLength="80.0342" x="2070.98" y="230.2191">AdaptadorEmail</text><text fill="#000000" font-family="sans-serif" font-size="10" lengthAdjust="spacing" textLength="64.4775" x="2070.98" y="241.8597">(NodeMailer)</text></g><!--entity SMTP--><g class="entity" data-qualified-name="Ext.SMTP" data-source-line="96" id="ent0047"><path d="M2068.5117,342.3865 C2072.1851,336.1587 2077.3409,335.0121 2082.4651,340.6857 C2086.9042,333.6135 2091.8162,333.2565 2096.5706,340.3721 C2099.7301,332.7815 2105.5122,331.3053 2111.2008,337.7324 C2116.249,332.3113 2122.6228,332.0322 2126.0554,339.5826 C2130.5422,334.4445 2134.9465,333.7698 2139.0128,340.0594 C2145.6236,332.7021 2151.498,334.9633 2155.1496,343.1345 C2161.4453,345.071 2163.325,349.6179 2158.8662,354.94 C2163.3842,361.4448 2161.512,367.003 2153.3757,368.312 C2150.7374,374.727 2145.5654,377.1291 2140.4383,370.848 C2137.0503,377.8112 2131.0958,379.4745 2125.369,373.5917 C2122.9706,381.1374 2116.3117,381.757 2111.3339,376.3968 C2104.6998,381.6006 2099.915,380.9536 2096.11,373.0987 C2090.4316,379.5306 2084.9973,377.5324 2082.6461,369.9109 C2077.5964,376.3892 2070.6459,374.7026 2068.3209,367.1325 C2061.2761,366.2719 2059.2217,360.2237 2063.9951,355.1106 C2059.907,348.7568 2061.4184,344.7714 2068.5117,342.3865" fill="#F1F1F1" style="stroke:#181818;stroke-width:0.5;"/><text fill="#000000" font-family="sans-serif" font-size="10" lengthAdjust="spacing" textLength="72.1777" x="2073.91" y="357.4991">Servidor SMTP</text></g><!--entity IRestAPI--><g class="entity" data-qualified-name="IRestAPI" data-source-line="31" id="ent0010"><ellipse cx="619" cy="354.0369" fill="#FFFDE7" rx="8" ry="8" style="stroke:#AAAAAA;stroke-width:0.5;"/><text fill="#000000" font-family="sans-serif" font-size="10" lengthAdjust="spacing" textLength="41.001" x="598.4995" y="380.3191">IRestAPI</text></g><!--entity ISvcAuth--><g class="entity" data-qualified-name="ISvcAuth" data-source-line="52" id="ent0023"><ellipse cx="1709" cy="354.0369" fill="#FFFDE7" rx="8" ry="8" style="stroke:#AAAAAA;stroke-width:0.5;"/><text fill="#000000" font-family="sans-serif" font-size="10" lengthAdjust="spacing" textLength="63.3105" x="1677.3447" y="380.3191">IServicoAuth</text></g><!--entity ISvcMoeda--><g class="entity" data-qualified-name="ISvcMoeda" data-source-line="53" id="ent0024"><ellipse cx="1509" cy="354.0369" fill="#FFFDE7" rx="8" ry="8" style="stroke:#AAAAAA;stroke-width:0.5;"/><text fill="#000000" font-family="sans-serif" font-size="10" lengthAdjust="spacing" textLength="73.2471" x="1472.3765" y="380.3191">IServicoMoeda</text></g><!--entity ISvcVant--><g class="entity" data-qualified-name="ISvcVant" data-source-line="54" id="ent0025"><ellipse cx="1360" cy="354.0369" fill="#FFFDE7" rx="8" ry="8" style="stroke:#AAAAAA;stroke-width:0.5;"/><text fill="#000000" font-family="sans-serif" font-size="10" lengthAdjust="spacing" textLength="91.4697" x="1314.2651" y="380.3191">IServicoVantagem</text></g><!--entity ISvcNotif--><g class="entity" data-qualified-name="ISvcNotif" data-source-line="67" id="ent0031"><ellipse cx="1451" cy="354.0369" fill="#FFFDE7" rx="8" ry="8" style="stroke:#AAAAAA;stroke-width:0.5;"/><text fill="#000000" font-family="sans-serif" font-size="10" lengthAdjust="spacing" textLength="95.8398" x="1403.0801" y="380.3191">IServicoNotificacao</text></g><!--entity IRepAl--><g class="entity" data-qualified-name="IRepAl" data-source-line="70" id="ent0032"><ellipse cx="2210" cy="232.5769" fill="#FFFDE7" rx="8" ry="8" style="stroke:#AAAAAA;stroke-width:0.5;"/><text fill="#000000" font-family="sans-serif" font-size="10" lengthAdjust="spacing" textLength="87.9639" x="2166.0181" y="258.8591">IRepositorioAluno</text></g><!--entity IRepPr--><g class="entity" data-qualified-name="IRepPr" data-source-line="71" id="ent0033"><ellipse cx="2268" cy="232.5769" fill="#FFFDE7" rx="8" ry="8" style="stroke:#AAAAAA;stroke-width:0.5;"/><text fill="#000000" font-family="sans-serif" font-size="10" lengthAdjust="spacing" textLength="106.1328" x="2214.9336" y="258.8591">IRepositorioProfessor</text></g><!--entity IRepTr--><g class="entity" data-qualified-name="IRepTr" data-source-line="72" id="ent0034"><ellipse cx="2326" cy="232.5769" fill="#FFFDE7" rx="8" ry="8" style="stroke:#AAAAAA;stroke-width:0.5;"/><text fill="#000000" font-family="sans-serif" font-size="10" lengthAdjust="spacing" textLength="128.125" x="2261.9375" y="258.8591">IRepositorioTransferencia</text></g><!--entity IRepVa--><g class="entity" data-qualified-name="IRepVa" data-source-line="73" id="ent0035"><ellipse cx="2384" cy="232.5769" fill="#FFFDE7" rx="8" ry="8" style="stroke:#AAAAAA;stroke-width:0.5;"/><text fill="#000000" font-family="sans-serif" font-size="10" lengthAdjust="spacing" textLength="111.1475" x="2328.4263" y="258.8591">IRepositorioVantagem</text></g><!--entity IRepRe--><g class="entity" data-qualified-name="IRepRe" data-source-line="74" id="ent0036"><ellipse cx="2469" cy="232.5769" fill="#FFFDE7" rx="8" ry="8" style="stroke:#AAAAAA;stroke-width:0.5;"/><text fill="#000000" font-family="sans-serif" font-size="10" lengthAdjust="spacing" textLength="100.4102" x="2418.7949" y="258.8591">IRepositorioResgate</text></g><!--entity IEmail--><g class="entity" data-qualified-name="IEmail" data-source-line="88" id="ent0043"><ellipse cx="1821" cy="354.0369" fill="#FFFDE7" rx="8" ry="8" style="stroke:#AAAAAA;stroke-width:0.5;"/><text fill="#000000" font-family="sans-serif" font-size="10" lengthAdjust="spacing" textLength="82.9834" x="1779.5083" y="380.3191">IAdaptadorEmail</text></g><!--link Modulos to AuthCtx--><g class="link" data-entity-1="ent0003" data-entity-2="ent0004" data-link-type="dependency" data-source-line="25" id="lnk7"><path d="M269,254.6569 C269,278.5069 269,310.7469 269,331.8469" fill="none" id="Modulos-to-AuthCtx" style="stroke:#444444;stroke-width:1;"/><polygon fill="#444444" points="269,337.8469,273,328.8469,269,332.8469,265,328.8469,269,337.8469" style="stroke:#444444;stroke-width:1;"/></g><!--link Modulos to HTTPCliente--><g class="link" data-entity-1="ent0003" data-entity-2="ent0006" data-link-type="dependency" data-source-line="26" id="lnk8"><path d="M237.94,254.6569 C202.81,278.5069 151.4241,313.3768 120.3441,334.4768" fill="none" id="Modulos-to-HTTPCliente" style="stroke:#444444;stroke-width:1;"/><polygon fill="#444444" points="115.38,337.8469,125.0729,336.1011,119.5168,335.0385,120.5794,329.4823,115.38,337.8469" style="stroke:#444444;stroke-width:1;"/></g><!--link Modulos to UIShared--><g class="link" data-entity-1="ent0003" data-entity-2="ent0005" data-link-type="dependency" data-source-line="27" id="lnk9"><path d="M305.71,254.6569 C347.23,278.5069 408.6174,313.7582 445.3474,334.8582" fill="none" id="Modulos-to-UIShared" style="stroke:#444444;stroke-width:1;stroke-dasharray:7,7;"/><polygon fill="#444444" points="450.55,337.8469,444.7385,329.8954,446.2145,335.3563,440.7535,336.8322,450.55,337.8469" style="stroke:#444444;stroke-width:1;"/><text fill="#000000" font-family="sans-serif" font-size="10" lengthAdjust="spacing" textLength="17.6758" x="381" y="297.4991">usa</text></g><!--link MidJWT to CAluno--><g class="link" data-entity-1="ent0012" data-entity-2="ent0015" data-link-type="dependency" data-source-line="45" id="lnk19"><path d="M771.53,248.7069 C804.14,271.6169 860.8003,311.4379 893.4703,334.3879" fill="none" id="MidJWT-to-CAluno" style="stroke:#444444;stroke-width:1;"/><polygon fill="#444444" points="898.38,337.8369,893.3148,329.3904,894.2886,334.9628,888.7162,335.9366,898.38,337.8369" style="stroke:#444444;stroke-width:1;"/></g><!--link MidJWT to CProf--><g class="link" data-entity-1="ent0012" data-entity-2="ent0016" data-link-type="dependency" data-source-line="46" id="lnk20"><path d="M751.65,248.7069 C754.15,271.6869 758.2188,309.1623 760.7188,332.0623" fill="none" id="MidJWT-to-CProf" style="stroke:#444444;stroke-width:1;"/><polygon fill="#444444" points="761.37,338.0269,764.3696,328.6459,760.8274,333.0564,756.4169,329.5141,761.37,338.0269" style="stroke:#444444;stroke-width:1;"/></g><!--link MidVal to CAuth--><g class="link" data-entity-1="ent0013" data-entity-2="ent0014" data-link-type="dependency" data-source-line="47" id="lnk21"><path d="M949.65,254.6569 C1000.15,278.5069 1075.7248,314.1843 1120.3948,335.2843" fill="none" id="MidVal-to-CAuth" style="stroke:#444444;stroke-width:1;"/><polygon fill="#444444" points="1125.82,337.8469,1119.3906,330.3861,1121.299,335.7114,1115.9738,337.6198,1125.82,337.8469" style="stroke:#444444;stroke-width:1;"/></g><!--link MidVal to CAluno--><g class="link" data-entity-1="ent0013" data-entity-2="ent0015" data-link-type="dependency" data-source-line="48" id="lnk22"><path d="M907.65,254.6569 C910.64,278.5069 914.6923,310.7936 917.3423,331.8936" fill="none" id="MidVal-to-CAluno" style="stroke:#444444;stroke-width:1;"/><polygon fill="#444444" points="918.09,337.8469,920.9373,328.4186,917.4669,332.8858,912.9997,329.4155,918.09,337.8469" style="stroke:#444444;stroke-width:1;"/></g><!--link Email to SMTP--><g class="link" data-entity-1="ent0046" data-entity-2="ent0047" data-link-type="dependency" data-source-line="98" id="lnk48"><path d="M2110.82,254.6569 C2110.64,276.7669 2110.3997,305.2371 2110.2197,326.9571" fill="none" id="Email-to-SMTP" style="stroke:#444444;stroke-width:1;"/><polygon fill="#444444" points="2110.17,332.9569,2114.2444,323.9903,2110.2114,327.957,2106.2447,323.924,2110.17,332.9569" style="stroke:#444444;stroke-width:1;"/></g><!--link HTTP_Layer to IRestAPI--><g class="link" data-entity-1="ent0011" data-entity-2="ent0010" data-link-type="association" data-source-line="107" id="lnk49"><path d="M651.8746,257.2495 C651.6595,257.8763 651.4414,258.5116 651.2207,259.1548 C650.7791,260.4413 650.3267,261.7596 649.8647,263.1057 C648.0167,268.49 646.0162,274.3188 643.9525,280.3319 C635.6975,304.3844 626.43,331.3869 621.86,344.6969" fill="none" id="HTTP_Layer-IRestAPI" style="stroke:#444444;stroke-width:1;"/></g><!--link HTTPCliente to IRestAPI--><g class="link" data-entity-1="ent0006" data-entity-2="ent0010" data-source-line="108" id="lnk50"><path d="M117.05,337.7369 C136.76,325.4269 165.89,309.5269 194,302.8069 C274.83,283.4769 491.25,270.9169 568,302.8069 C588.4,311.2769 599.2627,324.0234 607.5627,336.3434" fill="none" id="HTTPCliente-to-IRestAPI" style="stroke:#444444;stroke-width:1;"/><path d="M618.4441,337.3587 A9,9 0 0 0 604.4161 346.8093" fill="none" style="stroke:#444444;stroke-width:1.5;"/></g><!--link SvcAuth to ISvcAuth--><g class="link" data-entity-1="ent0027" data-entity-2="ent0023" data-link-type="association" data-source-line="111" id="lnk51"><path d="M1829.52,248.7069 C1799.93,274.3169 1740.97,325.3669 1718.24,345.0469" fill="none" id="SvcAuth-ISvcAuth" style="stroke:#444444;stroke-width:1;"/></g><!--link CAuth to ISvcAuth--><g class="link" data-entity-1="ent0014" data-entity-2="ent0023" data-source-line="112" id="lnk52"><path d="M1205.29,337.7969 C1243.95,325.4169 1300.3,309.4169 1351,302.8069 C1424.6,293.2069 1444.41,293.1069 1518,302.8069 C1589.48,312.2269 1662.805,337.269 1690.235,347.179" fill="none" id="CAuth-to-ISvcAuth" style="stroke:#444444;stroke-width:1;"/><path d="M1699.6186,341.5769 A9,9 0 0 0 1693.8713 357.485" fill="none" style="stroke:#444444;stroke-width:1.5;"/></g><!--link SvcMoeda to ISvcMoeda--><g class="link" data-entity-1="ent0028" data-entity-2="ent0024" data-link-type="association" data-source-line="114" id="lnk53"><path d="M1560.53,248.7069 C1547.94,274.1969 1522.91,324.8669 1513.09,344.7469" fill="none" id="SvcMoeda-ISvcMoeda" style="stroke:#444444;stroke-width:1;"/></g><!--link CAluno to ISvcMoeda--><g class="link" data-entity-1="ent0015" data-entity-2="ent0024" data-source-line="115" id="lnk54"><path d="M965.78,337.7969 C1003.21,325.4269 1057.79,309.4269 1107,302.8069 C1184.74,292.3469 1387.87,271.9869 1460,302.8069 C1479.92,311.3169 1490.2284,323.9084 1498.0884,336.2184" fill="none" id="CAluno-to-ISvcMoeda" style="stroke:#444444;stroke-width:1;"/><path d="M1508.9416,337.5011 A9,9 0 0 0 1494.6853 346.6038" fill="none" style="stroke:#444444;stroke-width:1.5;"/></g><!--link CProf to ISvcMoeda--><g class="link" data-entity-1="ent0016" data-entity-2="ent0024" data-source-line="116" id="lnk55"><path d="M787.57,337.7369 C807.7,325.4169 837.42,309.5169 866,302.8069 C930.25,287.7069 1399.31,276.8769 1460,302.8069 C1479.92,311.3169 1490.2284,323.9084 1498.0884,336.2184" fill="none" id="CProf-to-ISvcMoeda" style="stroke:#444444;stroke-width:1;"/><path d="M1508.9416,337.5011 A9,9 0 0 0 1494.6853 346.6038" fill="none" style="stroke:#444444;stroke-width:1.5;"/></g><!--link SvcVantagem to ISvcVant--><g class="link" data-entity-1="ent0029" data-entity-2="ent0025" data-link-type="association" data-source-line="118" id="lnk56"><path d="M1420.26,248.7069 C1405.54,274.1969 1376.27,324.8669 1364.79,344.7469" fill="none" id="SvcVantagem-ISvcVant" style="stroke:#444444;stroke-width:1;"/></g><!--link CEmpresa to ISvcVant--><g class="link" data-entity-1="ent0017" data-entity-2="ent0025" data-source-line="119" id="lnk57"><path d="M1101.45,248.8369 C1116.76,256.2969 1135.7,265.1869 1153,272.3969 C1226.3,302.9369 1248.13,301.6569 1321,333.2169 C1331.31,337.6869 1333.94,338.8571 1341.74,343.0671" fill="none" id="CEmpresa-to-ISvcVant" style="stroke:#444444;stroke-width:1;"/><path d="M1351.8482,338.9125 A9,9 0 0 0 1343.8142 353.7972" fill="none" style="stroke:#444444;stroke-width:1.5;"/></g><!--link CVant to ISvcVant--><g class="link" data-entity-1="ent0018" data-entity-2="ent0025" data-source-line="120" id="lnk58"><path d="M1253.45,248.7069 C1279.48,274.1969 1324.0837,317.8719 1344.3937,337.7519" fill="none" id="CVant-to-ISvcVant" style="stroke:#444444;stroke-width:1;"/><path d="M1355.2561,336.5499 A9,9 0 0 0 1343.4244 348.6375" fill="none" style="stroke:#444444;stroke-width:1.5;"/></g><!--link SvcNotif to ISvcNotif--><g class="link" data-entity-1="ent0030" data-entity-2="ent0031" data-link-type="association" data-source-line="123" id="lnk59"><path d="M1681.41,248.7469 C1667.03,256.1869 1649.25,265.0869 1633,272.3969 C1566.26,302.4169 1544.6,298.8469 1480,333.2169 C1473.11,336.8869 1465.86,341.8369 1460.33,345.8769" fill="none" id="SvcNotif-ISvcNotif" style="stroke:#444444;stroke-width:1;"/></g><!--link SvcMoeda to ISvcNotif--><g class="link" data-entity-1="ent0028" data-entity-2="ent0031" data-source-line="124" id="lnk60"><path d="M1545.65,248.8969 C1531.75,258.9569 1513.94,272.8769 1500,287.2169 C1481.73,306.0069 1469.7855,323.3545 1461.4855,336.3745" fill="none" id="SvcMoeda-to-ISvcNotif" style="stroke:#444444;stroke-width:1;"/><path d="M1464.8961,346.7574 A9,9 0 0 0 1450.6332 337.6651" fill="none" style="stroke:#444444;stroke-width:1.5;"/></g><!--link SvcVantagem to ISvcNotif--><g class="link" data-entity-1="ent0029" data-entity-2="ent0031" data-source-line="125" id="lnk61"><path d="M1431.79,248.7069 C1436.48,274.1969 1443.9994,315.0322 1447.6594,334.9122" fill="none" id="SvcVantagem-to-ISvcNotif" style="stroke:#444444;stroke-width:1;"/><path d="M1457.2301,340.1883 A9,9 0 0 0 1440.5952 343.2509" fill="none" style="stroke:#444444;stroke-width:1.5;"/></g><!--link RAl to IRepAl--><g class="link" data-entity-1="ent0038" data-entity-2="ent0032" data-link-type="association" data-source-line="128" id="lnk62"><path d="M1869.27,110.3369 C1882.98,118.8669 1901.27,128.7969 1919,133.9369 C1974.63,150.0369 2132.35,117.6069 2179,151.9369 C2202.3,169.0869 2208.09,206.3169 2209.53,223.0869" fill="none" id="RAl-IRepAl" style="stroke:#444444;stroke-width:1;"/></g><!--link SvcAuth to IRepAl--><g class="link" data-entity-1="ent0027" data-entity-2="ent0032" data-source-line="129" id="lnk63"><path d="M1856.8,216.2569 C1872.1,192.8769 1904.19,151.6969 1945,142.9369 C1991.5,132.9569 2112.5,132.9569 2159,142.9369 C2168.53,144.9769 2172.3,144.8569 2179,151.9369 C2198.48,172.5369 2204.5005,196.794 2207.1505,213.254" fill="none" id="SvcAuth-to-IRepAl" style="stroke:#444444;stroke-width:1;"/><path d="M2216.6004,218.7436 A9,9 0 0 0 2199.901 221.4321" fill="none" style="stroke:#444444;stroke-width:1.5;"/></g><!--link SvcMoeda to IRepAl--><g class="link" data-entity-1="ent0028" data-entity-2="ent0032" data-source-line="130" id="lnk64"><path d="M1575.78,216.4969 C1588.35,193.0069 1615.62,151.1769 1654,142.9369 C1708.86,131.1569 2104.14,131.1569 2159,142.9369 C2168.53,144.9769 2172.3,144.8569 2179,151.9369 C2198.48,172.5369 2204.5005,196.794 2207.1505,213.254" fill="none" id="SvcMoeda-to-IRepAl" style="stroke:#444444;stroke-width:1;"/><path d="M2216.6004,218.7436 A9,9 0 0 0 2199.901 221.4321" fill="none" style="stroke:#444444;stroke-width:1.5;"/></g><!--link RPr to IRepPr--><g class="link" data-entity-1="ent0039" data-entity-2="ent0033" data-link-type="association" data-source-line="132" id="lnk65"><path d="M2027.11,110.3769 C2042.57,118.7069 2062.82,128.4069 2082,133.9369 C2115.74,143.6569 2211.43,130.1869 2239,151.9369 C2261.53,169.7069 2266.56,206.6169 2267.68,223.1969" fill="none" id="RPr-IRepPr" style="stroke:#444444;stroke-width:1;"/></g><!--link SvcAuth to IRepPr--><g class="link" data-entity-1="ent0027" data-entity-2="ent0033" data-source-line="133" id="lnk66"><path d="M1856.8,216.2569 C1872.1,192.8769 1904.19,151.6969 1945,142.9369 C1974.77,136.5469 2189.23,136.5469 2219,142.9369 C2228.53,144.9769 2232.38,144.7769 2239,151.9369 C2258.1,172.5769 2263.4736,196.7852 2265.6736,213.2252" fill="none" id="SvcAuth-to-IRepPr" style="stroke:#444444;stroke-width:1;"/><path d="M2274.9742,218.9641 A9,9 0 0 0 2258.2092 221.2076" fill="none" style="stroke:#444444;stroke-width:1.5;"/></g><!--link SvcMoeda to IRepPr--><g class="link" data-entity-1="ent0028" data-entity-2="ent0033" data-source-line="134" id="lnk67"><path d="M1575.78,216.4969 C1588.35,193.0069 1615.62,151.1769 1654,142.9369 C1684.69,136.3469 2188.31,136.3469 2219,142.9369 C2228.53,144.9769 2232.38,144.7769 2239,151.9369 C2258.1,172.5769 2263.4736,196.7852 2265.6736,213.2252" fill="none" id="SvcMoeda-to-IRepPr" style="stroke:#444444;stroke-width:1;"/><path d="M2274.9742,218.9641 A9,9 0 0 0 2258.2092 221.2076" fill="none" style="stroke:#444444;stroke-width:1.5;"/></g><!--link RTr to IRepTr--><g class="link" data-entity-1="ent0040" data-entity-2="ent0034" data-link-type="association" data-source-line="136" id="lnk68"><path d="M2211.25,110.3269 C2244.89,124.6969 2290.7,145.0669 2297,151.9369 C2316.29,172.9769 2323,207.8669 2325.12,223.5269" fill="none" id="RTr-IRepTr" style="stroke:#444444;stroke-width:1;"/></g><!--link SvcMoeda to IRepTr--><g class="link" data-entity-1="ent0028" data-entity-2="ent0034" data-source-line="137" id="lnk69"><path d="M1575.78,216.4969 C1588.35,193.0069 1615.62,151.1769 1654,142.9369 C1687.84,135.6669 2243.16,135.6669 2277,142.9369 C2286.53,144.9769 2290.38,144.7769 2297,151.9369 C2316.1,172.5769 2321.4736,196.7852 2323.6736,213.2252" fill="none" id="SvcMoeda-to-IRepTr" style="stroke:#444444;stroke-width:1;"/><path d="M2332.9742,218.9641 A9,9 0 0 0 2316.2092 221.2076" fill="none" style="stroke:#444444;stroke-width:1.5;"/></g><!--link RVa to IRepVa--><g class="link" data-entity-1="ent0041" data-entity-2="ent0035" data-link-type="association" data-source-line="139" id="lnk70"><path d="M2355.55,110.2369 C2362.28,138.9669 2376.73,200.5669 2382.01,223.0969" fill="none" id="RVa-IRepVa" style="stroke:#444444;stroke-width:1;"/></g><!--link SvcVantagem to IRepVa--><g class="link" data-entity-1="ent0029" data-entity-2="ent0035" data-source-line="140" id="lnk71"><path d="M1437.96,216.5969 C1452.29,193.2169 1482.87,151.5469 1523,142.9369 C1567.11,133.4669 2290.89,133.4669 2335,142.9369 C2344.53,144.9769 2348.38,144.7769 2355,151.9369 C2374.1,172.5769 2379.4736,196.7852 2381.6736,213.2252" fill="none" id="SvcVantagem-to-IRepVa" style="stroke:#444444;stroke-width:1;"/><path d="M2390.9742,218.9641 A9,9 0 0 0 2374.2092 221.2076" fill="none" style="stroke:#444444;stroke-width:1.5;"/></g><!--link RRe to IRepRe--><g class="link" data-entity-1="ent0042" data-entity-2="ent0036" data-link-type="association" data-source-line="142" id="lnk72"><path d="M2509.9,110.2369 C2500.22,138.9669 2479.45,200.5669 2471.86,223.0969" fill="none" id="RRe-IRepRe" style="stroke:#444444;stroke-width:1;"/></g><!--link SvcVantagem to IRepRe--><g class="link" data-entity-1="ent0029" data-entity-2="ent0036" data-source-line="143" id="lnk73"><path d="M1437.96,216.5969 C1452.29,193.2169 1482.87,151.5469 1523,142.9369 C1570.26,132.7969 2345.74,132.7969 2393,142.9369 C2433.1,151.5369 2453.3797,192.6067 2461.8397,213.8467" fill="none" id="SvcVantagem-to-IRepRe" style="stroke:#444444;stroke-width:1;"/><path d="M2472.2579,217.1477 A9,9 0 0 0 2456.544 223.4066" fill="none" style="stroke:#444444;stroke-width:1.5;"/></g><!--link Email to IEmail--><g class="link" data-entity-1="ent0046" data-entity-2="ent0043" data-link-type="association" data-source-line="146" id="lnk74"><path d="M2075.58,254.6169 C2064.67,260.7169 2052.5,267.1369 2041,272.3969 C1961.83,308.5969 1861.29,340.6269 1830.43,350.1569" fill="none" id="Email-IEmail" style="stroke:#444444;stroke-width:1;"/></g><!--link SvcNotif to IEmail--><g class="link" data-entity-1="ent0030" data-entity-2="ent0043" data-source-line="147" id="lnk75"><path d="M1724.06,248.7069 C1747.74,274.1969 1788.0115,317.5426 1806.4915,337.4226" fill="none" id="SvcNotif-to-IEmail" style="stroke:#444444;stroke-width:1;"/><path d="M1817.3985,336.7343 A9,9 0 0 0 1805.0099 348.2504" fill="none" style="stroke:#444444;stroke-width:1.5;"/></g><!--link RAl to DB--><g class="link" data-entity-1="ent0038" data-entity-2="ent0045" data-link-type="dependency" data-source-line="150" id="lnk76"><path d="M1862.87,110.4369 C1874.59,121.8069 1890.89,137.7369 1905,151.9369 C1925.06,172.1269 1943.5134,191.2503 1959.0134,207.4603" fill="none" id="RAl-to-DB" style="stroke:#444444;stroke-width:1;"/><polygon fill="#444444" points="1963.16,211.7969,1959.8311,202.5276,1959.7045,208.1831,1954.0491,208.0565,1963.16,211.7969" style="stroke:#444444;stroke-width:1;"/></g><!--link RPr to DB--><g class="link" data-entity-1="ent0039" data-entity-2="ent0045" data-link-type="dependency" data-source-line="151" id="lnk77"><path d="M1998.89,110.2369 C1995.44,135.0869 1989.3761,178.564 1985.5561,206.044" fill="none" id="RPr-to-DB" style="stroke:#444444;stroke-width:1;"/><polygon fill="#444444" points="1984.73,211.9869,1989.9311,203.6233,1985.4184,207.0345,1982.0073,202.5218,1984.73,211.9869" style="stroke:#444444;stroke-width:1;"/></g><!--link RTr to DB--><g class="link" data-entity-1="ent0040" data-entity-2="ent0045" data-link-type="dependency" data-source-line="152" id="lnk78"><path d="M2138.92,110.3469 C2099.41,127.0369 2041.52,151.5269 2041,151.9369 C2020.05,168.4369 2005.8596,188.9721 1995.5396,206.6921" fill="none" id="RTr-to-DB" style="stroke:#444444;stroke-width:1;"/><polygon fill="#444444" points="1992.52,211.8769,2000.5059,206.1127,1995.0363,207.5562,1993.5929,202.0866,1992.52,211.8769" style="stroke:#444444;stroke-width:1;"/></g><!--link RVa to DB--><g class="link" data-entity-1="ent0041" data-entity-2="ent0045" data-link-type="dependency" data-source-line="153" id="lnk79"><path d="M2325.29,110.4269 C2309.22,118.8669 2288.05,128.6869 2268,133.9369 C2243.52,140.3469 2063.13,139.6669 2041,151.9369 C2016.92,165.2869 2002.5517,187.6796 1993.1717,206.6296" fill="none" id="RVa-to-DB" style="stroke:#444444;stroke-width:1;"/><polygon fill="#444444" points="1990.51,212.0069,1998.0874,205.7154,1992.7281,207.5258,1990.9177,202.1665,1990.51,212.0069" style="stroke:#444444;stroke-width:1;"/></g><!--link RRe to DB--><g class="link" data-entity-1="ent0042" data-entity-2="ent0045" data-link-type="dependency" data-source-line="154" id="lnk80"><path d="M2490.76,110.2869 C2475.62,118.9069 2455.39,128.9569 2436,133.9369 C2414.72,139.3969 2060.39,141.6069 2041,151.9369 C2016.7,164.8769 2002.36,187.354 1993.05,206.444" fill="none" id="RRe-to-DB" style="stroke:#444444;stroke-width:1;"/><polygon fill="#444444" points="1990.42,211.8369,1997.9603,205.501,1992.6117,207.3428,1990.7698,201.9942,1990.42,211.8369" style="stroke:#444444;stroke-width:1;"/></g><?plantuml-src pLZDRjj64BxpAGRkeHIQ67LYDuM06g0f2bLX_OIarG9DKMp8bSoQughBbIEd2P1JUYrQzmbwo0Fu4VGcVfBExdBv8r6zLh9XBMU_uUpEpBSpQv68b4AGv88k2CGKXep61BnSh6AIYII5nm_tq4l8d1CDSDbYoJAQ2PfRLdwJP4k2Kn0PSI3ky8sSHe9ayvJM836TaLKg-Wn1oLiA9r_M9ZCMqu0kuRGkv2IxaSAlpcf2mZbxuxAKSVZiL7tQbd71U4nv0NkXFblM6eWpzTb6aEXcpjagYmjK_slvKqCbw0O-8r4BjD_lUIzQeNMxZlfObc1B40nUCo4OUYgH_ajOPbcVm-FVV_o_lxW6S9sXqtFWHAL3tn-FGc_KEuZ5oK31KPzZLj4i1h1zIY81Ny0q4HI_mhib3IAUB4Nd24WEVGz-iw1A5FXnk7c8LodBPNRtLrc4VYTf4fEOlih8Ibp3Eo3fAcFulUHiHlCS8_SEw6B9QKvmT8jC8NEQvLAw5fm8zfCqDMJglKrhhbpe6cEDrfmLhbaa4TbysloZTL1qxOhrjax9ERWQA0eIZkIy9Z7BbThL8BWcdCPRUcaYbU3RC9o0JTO9opiABWN5f8KgnKBXwTFpsWBgqhf2DNDyV5vQXYwiScAzLobx_m5_OM1IlgjNS4dkA8SPuncDw1CeOyRfhokSq5gMtO6ZWKzpuKm6AcBcuT38y4oHmKKk-EDBfpVslU206E7YUOqdkN8ys2EK7V-I8n-yjKpRN9D1plwimx9DYYIEK_e68mlVVH_gT4vY7Ew5JHLfL2Q_okotBEuOBPpPvG1dAMOlb-ccSAuSxOT90XOuETmBd1Y6Qh1yt8lrD8CridZO2vvgaYyqMZufvYYVA8gK2wlB2llQ2GLCxxCXKfgjrCcx451-csm-8TyAwYoUG6rXU2Pe0j55Wq9ABMBIdAPHS1ifs_LPLUxBQVNKc3UxBY5wuuT5nEUAY87dJmURtyS7I48SLa44-tBpCCT3Nuf7TBvvm8gZwHXCtNOsrcAfyi-4iWsaWcXGEg9ji4O-5u6LpwtW4HF939SS4MRmIhJlkDzLguvzjiBCpGtalvEtze8o0xNXTghuTCdoH6mUUDAWI-NzLck56aCjHKLJTfPEkWCe3vWIDE4xe10xrto6Th2R82Kmt0Ks-OKJKxA3mV8t9uAM49yU6W5F5G5zRp8E1k7cBtzme2HifWVOJYGZ2GHwif7I79IxQ2VXTfOe9lXEkXVLh4K-via-P2DVD3hSZsvGrv-IlS0YSpGEqsOFMvsOB8KkY0HlV2LJMrZSqgerjNMMgk71P6bP6S3x8VJyqK5bPtKqUMkCICPovK9yKFaN4q5Uano14vQBEQV1oqi5w5qqmzuC0tPWikKRuf1otOZfcA1EobPnOHVX40p3YQu-E90zZSu2sPWeoVk3YUC0Rvr-tt6z0FfZV-IvWvuJW8rBXGvuoDoNLvvlP3Pqf4vV9JCsfl0Df2nDaoNUjF6UXcU1p6GzaRFeXWgmtSv1RBKYgRuY9Pp0IRUwBpr-lDTzVK73MXUFhYYlIxKxctH7ungr_VfdtQsMKjgeKhCmLBGToeffGLmjiIk9PVeEWzDDYEvo3RAGoIEoAR9glOXvWMewJOTku5ee_pOaRRjxtWKFDrVlmcnpggaBIwUsGpLXBEjcezgGtPHM2xLRUvDg2QVrFbuwjrcB2lDOJOeGojQZTBTTarGBqI8BwuhHmGgpfQCb3HqKMLXTZ4wuYmWbOaeC0WlCzbQrrCAQOa1ONLf0HQkoxOoprWvHUaMVFOKtp45awaaL7BjUOlJRj_pvyK-u85ca_isYgdlJnUVo_DIUqyEm6ggTww7Qdnp-2m00?></g></svg>