<svg xmlns="http://www.w3.org/2000/svg" xmlns:xlink="http://www.w3.org/1999/xlink" contentStyleType="text/css" data-diagram-type="CLASS" height="786px" preserveAspectRatio="none" style="width:813px;height:786px;background:#FFFFFF;" version="1.1" viewBox="0 0 813 786" width="813px" zoomAndPan="magnify"><?plantuml 1.2026.4beta2?><defs/><g><g class="title" data-source-line="1"><text fill="#000000" font-family="sans-serif" font-size="14" font-weight="700" lengthAdjust="spacing" textLength="538.0977" x="133.9652" y="22.9951">Sistema de Moeda Estudantil &#8212; Diagrama Entidade-Relacionamento</text></g><!--class usuarios--><g class="entity" data-qualified-name="usuarios" data-source-line="13" id="ent0002"><rect fill="#F1F1F1" height="108.0234" rx="2.5" ry="2.5" style="stroke:#181818;stroke-width:0.5;" width="338.1069" x="241.19" y="44.2969"/><ellipse cx="383.2662" cy="58.2969" fill="#ADD1B2" rx="9" ry="9" style="stroke:#181818;stroke-width:1;"/><path d="M385.1568,62.2969 L380.1724,62.2969 L380.1724,54.2813 L385.1568,54.2813 L385.1568,55.6719 L381.7505,55.6719 L381.7505,57.4063 L384.8443,57.4063 L384.8443,58.7969 L381.7505,58.7969 L381.7505,60.9063 L385.1568,60.9063 L385.1568,62.2969 Z " fill="#000000"/><text fill="#000000" font-family="sans-serif" font-size="11" lengthAdjust="spacing" textLength="46.4546" x="400.7662" y="62.105">usuarios</text><line style="stroke:#181818;stroke-width:0.5;" x1="242.19" x2="578.2969" y1="72.2969" y2="72.2969"/><g data-visibility-modifier="IE_MANDATORY"><ellipse cx="252.19" cy="84.1992" fill="#000000" rx="3" ry="3" style="stroke:#000000;stroke-width:1;"/></g><text fill="#000000" font-family="sans-serif" font-size="11" lengthAdjust="spacing" textLength="79.3579" x="259.19" y="86.5073">id : UUID &#171;PK&#187;</text><line style="stroke:#181818;stroke-width:1;" x1="242.19" x2="578.2969" y1="93.1016" y2="93.1016"/><g data-visibility-modifier="IE_MANDATORY"><ellipse cx="252.19" cy="105.0039" fill="#000000" rx="3" ry="3" style="stroke:#000000;stroke-width:1;"/></g><text fill="#000000" font-family="sans-serif" font-size="11" lengthAdjust="spacing" textLength="184.5669" x="259.19" y="107.312">email : VARCHAR(255) &#171;UNIQUE&#187;</text><g data-visibility-modifier="IE_MANDATORY"><ellipse cx="252.19" cy="117.8086" fill="#000000" rx="3" ry="3" style="stroke:#000000;stroke-width:1;"/></g><text fill="#000000" font-family="sans-serif" font-size="11" lengthAdjust="spacing" textLength="159.1885" x="259.19" y="120.1167">senha_hash : VARCHAR(255)</text><g data-visibility-modifier="IE_MANDATORY"><ellipse cx="252.19" cy="130.6133" fill="#000000" rx="3" ry="3" style="stroke:#000000;stroke-width:1;"/></g><text fill="#000000" font-family="sans-serif" font-size="11" lengthAdjust="spacing" textLength="314.1069" x="259.19" y="132.9214">papel : ENUM(ALUNO, PROFESSOR, EMPRESA_PARCEIRA)</text><g data-visibility-modifier="IE_MANDATORY"><ellipse cx="252.19" cy="143.418" fill="#000000" rx="3" ry="3" style="stroke:#000000;stroke-width:1;"/></g><text fill="#000000" font-family="sans-serif" font-size="11" lengthAdjust="spacing" textLength="219.9624" x="259.19" y="145.7261">criado_em : TIMESTAMP DEFAULT now()</text></g><!--class alunos--><g class="entity" data-qualified-name="alunos" data-source-line="25" id="ent0003"><rect fill="#F1F1F1" height="184.8516" rx="2.5" ry="2.5" style="stroke:#181818;stroke-width:0.5;" width="244.4941" x="7" y="212.3269"/><ellipse cx="107.3965" cy="226.3269" fill="#ADD1B2" rx="9" ry="9" style="stroke:#181818;stroke-width:1;"/><path d="M109.2871,230.3269 L104.3027,230.3269 L104.3027,222.3113 L109.2871,222.3113 L109.2871,223.7019 L105.8809,223.7019 L105.8809,225.4363 L108.9746,225.4363 L108.9746,226.8269 L105.8809,226.8269 L105.8809,228.9363 L109.2871,228.9363 L109.2871,230.3269 Z " fill="#000000"/><text fill="#000000" font-family="sans-serif" font-size="11" lengthAdjust="spacing" textLength="36.2012" x="124.8965" y="230.135">alunos</text><line style="stroke:#181818;stroke-width:0.5;" x1="8" x2="250.4941" y1="240.3269" y2="240.3269"/><g data-visibility-modifier="IE_MANDATORY"><ellipse cx="18" cy="252.2292" fill="#000000" rx="3" ry="3" style="stroke:#000000;stroke-width:1;"/></g><text fill="#000000" font-family="sans-serif" font-size="11" lengthAdjust="spacing" textLength="162.5562" x="25" y="254.5373">id : UUID &#171;PK, FK &#8594; usuarios&#187;</text><line style="stroke:#181818;stroke-width:1;" x1="8" x2="250.4941" y1="261.1316" y2="261.1316"/><g data-visibility-modifier="IE_MANDATORY"><ellipse cx="18" cy="273.0339" fill="#000000" rx="3" ry="3" style="stroke:#000000;stroke-width:1;"/></g><text fill="#000000" font-family="sans-serif" font-size="11" lengthAdjust="spacing" textLength="125.2754" x="25" y="275.342">nome : VARCHAR(255)</text><g data-visibility-modifier="IE_MANDATORY"><ellipse cx="18" cy="285.8386" fill="#000000" rx="3" ry="3" style="stroke:#000000;stroke-width:1;"/></g><text fill="#000000" font-family="sans-serif" font-size="11" lengthAdjust="spacing" textLength="164.1353" x="25" y="288.1467">cpf : VARCHAR(14) &#171;UNIQUE&#187;</text><g data-visibility-modifier="IE_MANDATORY"><ellipse cx="18" cy="298.6433" fill="#000000" rx="3" ry="3" style="stroke:#000000;stroke-width:1;"/></g><text fill="#000000" font-family="sans-serif" font-size="11" lengthAdjust="spacing" textLength="98.5972" x="25" y="300.9514">rg : VARCHAR(20)</text><g data-visibility-modifier="IE_MANDATORY"><ellipse cx="18" cy="311.448" fill="#000000" rx="3" ry="3" style="stroke:#000000;stroke-width:1;"/></g><text fill="#000000" font-family="sans-serif" font-size="11" lengthAdjust="spacing" textLength="154.0591" x="25" y="313.7561">logradouro : VARCHAR(255)</text><g data-visibility-modifier="IE_MANDATORY"><ellipse cx="18" cy="324.2527" fill="#000000" rx="3" ry="3" style="stroke:#000000;stroke-width:1;"/></g><text fill="#000000" font-family="sans-serif" font-size="11" lengthAdjust="spacing" textLength="130.668" x="25" y="326.5608">cidade : VARCHAR(100)</text><g data-visibility-modifier="IE_MANDATORY"><ellipse cx="18" cy="337.0573" fill="#000000" rx="3" ry="3" style="stroke:#000000;stroke-width:1;"/></g><text fill="#000000" font-family="sans-serif" font-size="11" lengthAdjust="spacing" textLength="94.6655" x="25" y="339.3654">estado : CHAR(2)</text><g data-visibility-modifier="IE_MANDATORY"><ellipse cx="18" cy="349.862" fill="#000000" rx="3" ry="3" style="stroke:#000000;stroke-width:1;"/></g><text fill="#000000" font-family="sans-serif" font-size="11" lengthAdjust="spacing" textLength="99.8916" x="25" y="352.1701">cep : VARCHAR(9)</text><g data-visibility-modifier="IE_MANDATORY"><ellipse cx="18" cy="362.6667" fill="#000000" rx="3" ry="3" style="stroke:#000000;stroke-width:1;"/></g><text fill="#000000" font-family="sans-serif" font-size="11" lengthAdjust="spacing" textLength="124.0938" x="25" y="364.9748">curso : VARCHAR(100)</text><g data-visibility-modifier="IE_MANDATORY"><ellipse cx="18" cy="375.4714" fill="#000000" rx="3" ry="3" style="stroke:#000000;stroke-width:1;"/></g><text fill="#000000" font-family="sans-serif" font-size="11" lengthAdjust="spacing" textLength="201.5288" x="25" y="377.7795">saldo_moedas : INTEGER DEFAULT 0</text><g data-visibility-modifier="IE_MANDATORY"><ellipse cx="18" cy="388.2761" fill="#000000" rx="3" ry="3" style="stroke:#000000;stroke-width:1;"/></g><text fill="#000000" font-family="sans-serif" font-size="11" lengthAdjust="spacing" textLength="220.4941" x="25" y="390.5842">instituicao_id : UUID &#171;FK &#8594; instituicoes&#187;</text></g><!--class professores--><g class="entity" data-qualified-name="professores" data-source-line="40" id="ent0004"><rect fill="#F1F1F1" height="120.8281" rx="2.5" ry="2.5" style="stroke:#181818;stroke-width:0.5;" width="246.5244" x="286.98" y="244.3369"/><ellipse cx="374.4483" cy="258.3369" fill="#ADD1B2" rx="9" ry="9" style="stroke:#181818;stroke-width:1;"/><path d="M376.3389,262.3369 L371.3545,262.3369 L371.3545,254.3213 L376.3389,254.3213 L376.3389,255.7119 L372.9326,255.7119 L372.9326,257.4463 L376.0264,257.4463 L376.0264,258.8369 L372.9326,258.8369 L372.9326,260.9463 L376.3389,260.9463 L376.3389,262.3369 Z " fill="#000000"/><text fill="#000000" font-family="sans-serif" font-size="11" lengthAdjust="spacing" textLength="64.0879" x="391.9483" y="262.145">professores</text><line style="stroke:#181818;stroke-width:0.5;" x1="287.98" x2="532.5044" y1="272.3369" y2="272.3369"/><g data-visibility-modifier="IE_MANDATORY"><ellipse cx="297.98" cy="284.2392" fill="#000000" rx="3" ry="3" style="stroke:#000000;stroke-width:1;"/></g><text fill="#000000" font-family="sans-serif" font-size="11" lengthAdjust="spacing" textLength="162.5562" x="304.98" y="286.5473">id : UUID &#171;PK, FK &#8594; usuarios&#187;</text><line style="stroke:#181818;stroke-width:1;" x1="287.98" x2="532.5044" y1="293.1416" y2="293.1416"/><g data-visibility-modifier="IE_MANDATORY"><ellipse cx="297.98" cy="305.0439" fill="#000000" rx="3" ry="3" style="stroke:#000000;stroke-width:1;"/></g><text fill="#000000" font-family="sans-serif" font-size="11" lengthAdjust="spacing" textLength="125.2754" x="304.98" y="307.352">nome : VARCHAR(255)</text><g data-visibility-modifier="IE_MANDATORY"><ellipse cx="297.98" cy="317.8486" fill="#000000" rx="3" ry="3" style="stroke:#000000;stroke-width:1;"/></g><text fill="#000000" font-family="sans-serif" font-size="11" lengthAdjust="spacing" textLength="164.1353" x="304.98" y="320.1567">cpf : VARCHAR(14) &#171;UNIQUE&#187;</text><g data-visibility-modifier="IE_MANDATORY"><ellipse cx="297.98" cy="330.6533" fill="#000000" rx="3" ry="3" style="stroke:#000000;stroke-width:1;"/></g><text fill="#000000" font-family="sans-serif" font-size="11" lengthAdjust="spacing" textLength="172.6377" x="304.98" y="332.9614">departamento : VARCHAR(100)</text><g data-visibility-modifier="IE_MANDATORY"><ellipse cx="297.98" cy="343.458" fill="#000000" rx="3" ry="3" style="stroke:#000000;stroke-width:1;"/></g><text fill="#000000" font-family="sans-serif" font-size="11" lengthAdjust="spacing" textLength="222.5244" x="304.98" y="345.7661">saldo_moedas : INTEGER DEFAULT 1000</text><g data-visibility-modifier="IE_MANDATORY"><ellipse cx="297.98" cy="356.2627" fill="#000000" rx="3" ry="3" style="stroke:#000000;stroke-width:1;"/></g><text fill="#000000" font-family="sans-serif" font-size="11" lengthAdjust="spacing" textLength="220.4941" x="304.98" y="358.5708">instituicao_id : UUID &#171;FK &#8594; instituicoes&#187;</text></g><!--class empresas_parceiras--><g class="entity" data-qualified-name="empresas_parceiras" data-source-line="50" id="ent0005"><rect fill="#F1F1F1" height="82.4141" rx="2.5" ry="2.5" style="stroke:#181818;stroke-width:0.5;" width="186.5562" x="568.97" y="263.5469"/><ellipse cx="603.5641" cy="277.5469" fill="#ADD1B2" rx="9" ry="9" style="stroke:#181818;stroke-width:1;"/><path d="M605.4547,281.5469 L600.4703,281.5469 L600.4703,273.5313 L605.4547,273.5313 L605.4547,274.9219 L602.0484,274.9219 L602.0484,276.6563 L605.1422,276.6563 L605.1422,278.0469 L602.0484,278.0469 L602.0484,280.1563 L605.4547,280.1563 L605.4547,281.5469 Z " fill="#000000"/><text fill="#000000" font-family="sans-serif" font-size="11" lengthAdjust="spacing" textLength="110.5693" x="620.3627" y="281.355">empresas_parceiras</text><line style="stroke:#181818;stroke-width:0.5;" x1="569.97" x2="754.5262" y1="291.5469" y2="291.5469"/><g data-visibility-modifier="IE_MANDATORY"><ellipse cx="579.97" cy="303.4492" fill="#000000" rx="3" ry="3" style="stroke:#000000;stroke-width:1;"/></g><text fill="#000000" font-family="sans-serif" font-size="11" lengthAdjust="spacing" textLength="162.5562" x="586.97" y="305.7573">id : UUID &#171;PK, FK &#8594; usuarios&#187;</text><line style="stroke:#181818;stroke-width:1;" x1="569.97" x2="754.5262" y1="312.3516" y2="312.3516"/><g data-visibility-modifier="IE_MANDATORY"><ellipse cx="579.97" cy="324.2539" fill="#000000" rx="3" ry="3" style="stroke:#000000;stroke-width:1;"/></g><text fill="#000000" font-family="sans-serif" font-size="11" lengthAdjust="spacing" textLength="125.2754" x="586.97" y="326.562">nome : VARCHAR(255)</text><g data-visibility-modifier="IE_MANDATORY"><ellipse cx="579.97" cy="337.0586" fill="#000000" rx="3" ry="3" style="stroke:#000000;stroke-width:1;"/></g><text fill="#000000" font-family="sans-serif" font-size="11" lengthAdjust="spacing" textLength="91.2495" x="586.97" y="339.3667">descricao : TEXT</text></g><!--class instituicoes--><g class="entity" data-qualified-name="instituicoes" data-source-line="60" id="ent0006"><rect fill="#F1F1F1" height="82.4141" rx="2.5" ry="2.5" style="stroke:#181818;stroke-width:0.5;" width="149.2754" x="55.61" y="57.1069"/><ellipse cx="95.1251" cy="71.1069" fill="#ADD1B2" rx="9" ry="9" style="stroke:#181818;stroke-width:1;"/><path d="M97.0158,75.1069 L92.0314,75.1069 L92.0314,67.0913 L97.0158,67.0913 L97.0158,68.4819 L93.6095,68.4819 L93.6095,70.2163 L96.7033,70.2163 L96.7033,71.6069 L93.6095,71.6069 L93.6095,73.7163 L97.0158,73.7163 L97.0158,75.1069 Z " fill="#000000"/><text fill="#000000" font-family="sans-serif" font-size="11" lengthAdjust="spacing" textLength="62.7451" x="112.6251" y="74.915">instituicoes</text><line style="stroke:#181818;stroke-width:0.5;" x1="56.61" x2="203.8854" y1="85.1069" y2="85.1069"/><g data-visibility-modifier="IE_MANDATORY"><ellipse cx="66.61" cy="97.0092" fill="#000000" rx="3" ry="3" style="stroke:#000000;stroke-width:1;"/></g><text fill="#000000" font-family="sans-serif" font-size="11" lengthAdjust="spacing" textLength="79.3579" x="73.61" y="99.3173">id : UUID &#171;PK&#187;</text><line style="stroke:#181818;stroke-width:1;" x1="56.61" x2="203.8854" y1="105.9116" y2="105.9116"/><g data-visibility-modifier="IE_MANDATORY"><ellipse cx="66.61" cy="117.8139" fill="#000000" rx="3" ry="3" style="stroke:#000000;stroke-width:1;"/></g><text fill="#000000" font-family="sans-serif" font-size="11" lengthAdjust="spacing" textLength="125.2754" x="73.61" y="120.122">nome : VARCHAR(255)</text><g data-visibility-modifier="IE_MANDATORY"><ellipse cx="66.61" cy="130.6186" fill="#000000" rx="3" ry="3" style="stroke:#000000;stroke-width:1;"/></g><text fill="#000000" font-family="sans-serif" font-size="11" lengthAdjust="spacing" textLength="91.2495" x="73.61" y="132.9267">descricao : TEXT</text></g><!--class vantagens--><g class="entity" data-qualified-name="vantagens" data-source-line="70" id="ent0007"><rect fill="#F1F1F1" height="133.6328" rx="2.5" ry="2.5" style="stroke:#181818;stroke-width:0.5;" width="283.5581" x="514.47" y="457.1769"/><ellipse cx="623.6348" cy="471.1769" fill="#ADD1B2" rx="9" ry="9" style="stroke:#181818;stroke-width:1;"/><path d="M625.5254,475.1769 L620.541,475.1769 L620.541,467.1613 L625.5254,467.1613 L625.5254,468.5519 L622.1192,468.5519 L622.1192,470.2863 L625.2129,470.2863 L625.2129,471.6769 L622.1192,471.6769 L622.1192,473.7863 L625.5254,473.7863 L625.5254,475.1769 Z " fill="#000000"/><text fill="#000000" font-family="sans-serif" font-size="11" lengthAdjust="spacing" textLength="57.7285" x="641.1348" y="474.985">vantagens</text><line style="stroke:#181818;stroke-width:0.5;" x1="515.47" x2="797.0281" y1="485.1769" y2="485.1769"/><g data-visibility-modifier="IE_MANDATORY"><ellipse cx="525.47" cy="497.0792" fill="#000000" rx="3" ry="3" style="stroke:#000000;stroke-width:1;"/></g><text fill="#000000" font-family="sans-serif" font-size="11" lengthAdjust="spacing" textLength="79.3579" x="532.47" y="499.3873">id : UUID &#171;PK&#187;</text><line style="stroke:#181818;stroke-width:1;" x1="515.47" x2="797.0281" y1="505.9816" y2="505.9816"/><g data-visibility-modifier="IE_MANDATORY"><ellipse cx="525.47" cy="517.8839" fill="#000000" rx="3" ry="3" style="stroke:#000000;stroke-width:1;"/></g><text fill="#000000" font-family="sans-serif" font-size="11" lengthAdjust="spacing" textLength="259.5581" x="532.47" y="520.192">empresa_id : UUID &#171;FK &#8594; empresas_parceiras&#187;</text><g data-visibility-modifier="IE_MANDATORY"><ellipse cx="525.47" cy="530.6886" fill="#000000" rx="3" ry="3" style="stroke:#000000;stroke-width:1;"/></g><text fill="#000000" font-family="sans-serif" font-size="11" lengthAdjust="spacing" textLength="125.2754" x="532.47" y="532.9967">nome : VARCHAR(255)</text><g data-visibility-modifier="IE_MANDATORY"><ellipse cx="525.47" cy="543.4933" fill="#000000" rx="3" ry="3" style="stroke:#000000;stroke-width:1;"/></g><text fill="#000000" font-family="sans-serif" font-size="11" lengthAdjust="spacing" textLength="91.2495" x="532.47" y="545.8014">descricao : TEXT</text><g data-visibility-modifier="IE_MANDATORY"><ellipse cx="525.47" cy="556.298" fill="#000000" rx="3" ry="3" style="stroke:#000000;stroke-width:1;"/></g><text fill="#000000" font-family="sans-serif" font-size="11" lengthAdjust="spacing" textLength="135.7866" x="532.47" y="558.6061">url_foto : VARCHAR(500)</text><g data-visibility-modifier="IE_MANDATORY"><ellipse cx="525.47" cy="569.1027" fill="#000000" rx="3" ry="3" style="stroke:#000000;stroke-width:1;"/></g><text fill="#000000" font-family="sans-serif" font-size="11" lengthAdjust="spacing" textLength="137.9189" x="532.47" y="571.4108">custo_moedas : INTEGER</text><g data-visibility-modifier="IE_MANDATORY"><ellipse cx="525.47" cy="581.9073" fill="#000000" rx="3" ry="3" style="stroke:#000000;stroke-width:1;"/></g><text fill="#000000" font-family="sans-serif" font-size="11" lengthAdjust="spacing" textLength="171.4937" x="532.47" y="584.2154">ativa : BOOLEAN DEFAULT true</text></g><!--class transferencias_moedas--><g class="entity" data-qualified-name="transferencias_moedas" data-source-line="84" id="ent0008"><rect fill="#F1F1F1" height="120.8281" rx="2.5" ry="2.5" style="stroke:#181818;stroke-width:0.5;" width="260.2637" x="214.12" y="463.5769"/><ellipse cx="276.5402" cy="477.5769" fill="#ADD1B2" rx="9" ry="9" style="stroke:#181818;stroke-width:1;"/><path d="M278.4308,481.5769 L273.4464,481.5769 L273.4464,473.5613 L278.4308,473.5613 L278.4308,474.9519 L275.0245,474.9519 L275.0245,476.6863 L278.1183,476.6863 L278.1183,478.0769 L275.0245,478.0769 L275.0245,480.1863 L278.4308,480.1863 L278.4308,481.5769 Z " fill="#000000"/><text fill="#000000" font-family="sans-serif" font-size="11" lengthAdjust="spacing" textLength="127.9233" x="294.0402" y="481.385">transferencias_moedas</text><line style="stroke:#181818;stroke-width:0.5;" x1="215.12" x2="473.3837" y1="491.5769" y2="491.5769"/><g data-visibility-modifier="IE_MANDATORY"><ellipse cx="225.12" cy="503.4792" fill="#000000" rx="3" ry="3" style="stroke:#000000;stroke-width:1;"/></g><text fill="#000000" font-family="sans-serif" font-size="11" lengthAdjust="spacing" textLength="79.3579" x="232.12" y="505.7873">id : UUID &#171;PK&#187;</text><line style="stroke:#181818;stroke-width:1;" x1="215.12" x2="473.3837" y1="512.3816" y2="512.3816"/><g data-visibility-modifier="IE_MANDATORY"><ellipse cx="225.12" cy="524.2839" fill="#000000" rx="3" ry="3" style="stroke:#000000;stroke-width:1;"/></g><text fill="#000000" font-family="sans-serif" font-size="11" lengthAdjust="spacing" textLength="216.439" x="232.12" y="526.592">professor_id : UUID &#171;FK &#8594; professores&#187;</text><g data-visibility-modifier="IE_MANDATORY"><ellipse cx="225.12" cy="537.0886" fill="#000000" rx="3" ry="3" style="stroke:#000000;stroke-width:1;"/></g><text fill="#000000" font-family="sans-serif" font-size="11" lengthAdjust="spacing" textLength="167.4331" x="232.12" y="539.3967">aluno_id : UUID &#171;FK &#8594; alunos&#187;</text><g data-visibility-modifier="IE_MANDATORY"><ellipse cx="225.12" cy="549.8933" fill="#000000" rx="3" ry="3" style="stroke:#000000;stroke-width:1;"/></g><text fill="#000000" font-family="sans-serif" font-size="11" lengthAdjust="spacing" textLength="86.5176" x="232.12" y="552.2014">valor : INTEGER</text><g data-visibility-modifier="IE_MANDATORY"><ellipse cx="225.12" cy="562.698" fill="#000000" rx="3" ry="3" style="stroke:#000000;stroke-width:1;"/></g><text fill="#000000" font-family="sans-serif" font-size="11" lengthAdjust="spacing" textLength="76.6777" x="232.12" y="565.0061">motivo : TEXT</text><g data-visibility-modifier="IE_MANDATORY"><ellipse cx="225.12" cy="575.5027" fill="#000000" rx="3" ry="3" style="stroke:#000000;stroke-width:1;"/></g><text fill="#000000" font-family="sans-serif" font-size="11" lengthAdjust="spacing" textLength="236.2637" x="232.12" y="577.8108">realizada_em : TIMESTAMP DEFAULT now()</text></g><!--class resgates--><g class="entity" data-qualified-name="resgates" data-source-line="94" id="ent0009"><rect fill="#F1F1F1" height="120.8281" rx="2.5" ry="2.5" style="stroke:#181818;stroke-width:0.5;" width="265.3931" x="262.55" y="650.8069"/><ellipse cx="367.7187" cy="664.8069" fill="#ADD1B2" rx="9" ry="9" style="stroke:#181818;stroke-width:1;"/><path d="M369.6093,668.8069 L364.625,668.8069 L364.625,660.7913 L369.6093,660.7913 L369.6093,662.1819 L366.2031,662.1819 L366.2031,663.9163 L369.2968,663.9163 L369.2968,665.3069 L366.2031,665.3069 L366.2031,667.4163 L369.6093,667.4163 L369.6093,668.8069 Z " fill="#000000"/><text fill="#000000" font-family="sans-serif" font-size="11" lengthAdjust="spacing" textLength="47.5557" x="385.2187" y="668.615">resgates</text><line style="stroke:#181818;stroke-width:0.5;" x1="263.55" x2="526.9431" y1="678.8069" y2="678.8069"/><g data-visibility-modifier="IE_MANDATORY"><ellipse cx="273.55" cy="690.7092" fill="#000000" rx="3" ry="3" style="stroke:#000000;stroke-width:1;"/></g><text fill="#000000" font-family="sans-serif" font-size="11" lengthAdjust="spacing" textLength="79.3579" x="280.55" y="693.0173">id : UUID &#171;PK&#187;</text><line style="stroke:#181818;stroke-width:1;" x1="263.55" x2="526.9431" y1="699.6116" y2="699.6116"/><g data-visibility-modifier="IE_MANDATORY"><ellipse cx="273.55" cy="711.5139" fill="#000000" rx="3" ry="3" style="stroke:#000000;stroke-width:1;"/></g><text fill="#000000" font-family="sans-serif" font-size="11" lengthAdjust="spacing" textLength="167.4331" x="280.55" y="713.822">aluno_id : UUID &#171;FK &#8594; alunos&#187;</text><g data-visibility-modifier="IE_MANDATORY"><ellipse cx="273.55" cy="724.3186" fill="#000000" rx="3" ry="3" style="stroke:#000000;stroke-width:1;"/></g><text fill="#000000" font-family="sans-serif" font-size="11" lengthAdjust="spacing" textLength="214.2314" x="280.55" y="726.6267">vantagem_id : UUID &#171;FK &#8594; vantagens&#187;</text><g data-visibility-modifier="IE_MANDATORY"><ellipse cx="273.55" cy="737.1233" fill="#000000" rx="3" ry="3" style="stroke:#000000;stroke-width:1;"/></g><text fill="#000000" font-family="sans-serif" font-size="11" lengthAdjust="spacing" textLength="226.7085" x="280.55" y="739.4314">codigo_cupom : VARCHAR(50) &#171;UNIQUE&#187;</text><g data-visibility-modifier="IE_MANDATORY"><ellipse cx="273.55" cy="749.928" fill="#000000" rx="3" ry="3" style="stroke:#000000;stroke-width:1;"/></g><text fill="#000000" font-family="sans-serif" font-size="11" lengthAdjust="spacing" textLength="86.5176" x="280.55" y="752.2361">valor : INTEGER</text><g data-visibility-modifier="IE_MANDATORY"><ellipse cx="273.55" cy="762.7327" fill="#000000" rx="3" ry="3" style="stroke:#000000;stroke-width:1;"/></g><text fill="#000000" font-family="sans-serif" font-size="11" lengthAdjust="spacing" textLength="241.3931" x="280.55" y="765.0408">resgatado_em : TIMESTAMP DEFAULT now()</text></g><!--link usuarios to alunos--><g class="link" data-entity-1="ent0002" data-entity-2="ent0003" data-link-type="association" data-source-line="109" id="lnk10"><path codeLine="109" d="M246.34,160.8169 C246.34,178.9769 246.34,176.7469 246.34,196.9769" fill="none" id="usuarios-alunos" style="stroke:#181818;stroke-width:1;"/><line style="stroke:#181818;stroke-width:1;" x1="242.34" x2="250.34" y1="156.8169" y2="156.8169"/><line style="stroke:#181818;stroke-width:1;" x1="242.34" x2="250.34" y1="159.8169" y2="159.8169"/><line style="stroke:#181818;stroke-width:1;" x1="246.34" x2="246.34" y1="160.8169" y2="152.8169"/><line style="stroke:#181818;stroke-width:1;" x1="246.34" x2="246.34" y1="200.9769" y2="211.9769"/><ellipse cx="246.34" cy="200.9769" fill="none" rx="4" ry="4" style="stroke:#181818;stroke-width:1;"/><line style="stroke:#181818;stroke-width:1;" x1="250.34" x2="242.34" y1="207.9769" y2="207.9769"/><text fill="#000000" font-family="sans-serif" font-size="11" lengthAdjust="spacing" textLength="39.9072" x="206.34" y="179.6073">&#233; um &#9654;</text></g><!--link usuarios to professores--><g class="link" data-entity-1="ent0002" data-entity-2="ent0004" data-link-type="association" data-source-line="110" id="lnk11"><path codeLine="110" d="M451.33,160.8169 C451.33,188.8969 451.33,200.2069 451.33,229.1069" fill="none" id="usuarios-professores" style="stroke:#181818;stroke-width:1;"/><line style="stroke:#181818;stroke-width:1;" x1="447.33" x2="455.33" y1="156.8169" y2="156.8169"/><line style="stroke:#181818;stroke-width:1;" x1="447.33" x2="455.33" y1="159.8169" y2="159.8169"/><line style="stroke:#181818;stroke-width:1;" x1="451.33" x2="451.33" y1="160.8169" y2="152.8169"/><line style="stroke:#181818;stroke-width:1;" x1="451.33" x2="451.33" y1="233.1069" y2="244.1069"/><ellipse cx="451.33" cy="233.1069" fill="none" rx="4" ry="4" style="stroke:#181818;stroke-width:1;"/><line style="stroke:#181818;stroke-width:1;" x1="455.33" x2="447.33" y1="240.1069" y2="240.1069"/><text fill="#000000" font-family="sans-serif" font-size="11" lengthAdjust="spacing" textLength="39.9072" x="411.33" y="195.6773">&#233; um &#9654;</text></g><!--link usuarios to empresas_parceiras--><g class="link" data-entity-1="ent0002" data-entity-2="ent0005" data-link-type="association" data-source-line="111" id="lnk12"><path codeLine="111" d="M574.13,160.8169 C574.13,195.4669 574.13,216.6069 574.13,248.3669" fill="none" id="usuarios-empresas_parceiras" style="stroke:#181818;stroke-width:1;"/><line style="stroke:#181818;stroke-width:1;" x1="570.13" x2="578.13" y1="156.8169" y2="156.8169"/><line style="stroke:#181818;stroke-width:1;" x1="570.13" x2="578.13" y1="159.8169" y2="159.8169"/><line style="stroke:#181818;stroke-width:1;" x1="574.13" x2="574.13" y1="160.8169" y2="152.8169"/><line style="stroke:#181818;stroke-width:1;" x1="574.13" x2="574.13" y1="252.3669" y2="263.3669"/><ellipse cx="574.13" cy="252.3669" fill="none" rx="4" ry="4" style="stroke:#181818;stroke-width:1;"/><line style="stroke:#181818;stroke-width:1;" x1="578.13" x2="570.13" y1="259.3669" y2="259.3669"/><text fill="#000000" font-family="sans-serif" font-size="11" lengthAdjust="spacing" textLength="46.6479" x="527.13" y="205.3073">&#233; uma &#9654;</text></g><!--link instituicoes to alunos--><g class="link" data-entity-1="ent0006" data-entity-2="ent0003" data-link-type="crowfoot" data-source-line="114" id="lnk13"><path codeLine="114" d="M105.37,147.5969 C105.37,168.4169 105.37,168.5869 105.37,193.9069" fill="none" id="instituicoes-alunos" style="stroke:#181818;stroke-width:1;"/><line style="stroke:#181818;stroke-width:1;" x1="101.37" x2="109.37" y1="143.5969" y2="143.5969"/><line style="stroke:#181818;stroke-width:1;" x1="101.37" x2="109.37" y1="146.5969" y2="146.5969"/><line style="stroke:#181818;stroke-width:1;" x1="105.37" x2="105.37" y1="147.5969" y2="139.5969"/><line style="stroke:#181818;stroke-width:1;" x1="105.37" x2="111.37" y1="203.9069" y2="211.9069"/><line style="stroke:#181818;stroke-width:1;" x1="105.37" x2="99.37" y1="203.9069" y2="211.9069"/><line style="stroke:#181818;stroke-width:1;" x1="105.37" x2="105.37" y1="203.9069" y2="211.9069"/><ellipse cx="105.37" cy="197.9069" fill="none" rx="4" ry="4" style="stroke:#181818;stroke-width:1;"/><text fill="#000000" font-family="sans-serif" font-size="11" lengthAdjust="spacing" textLength="86.856" x="18.37" y="172.9573">matriculado em</text></g><!--link instituicoes to professores--><g class="link" data-entity-1="ent0006" data-entity-2="ent0004" data-link-type="crowfoot" data-source-line="115" id="lnk14"><path codeLine="115" d="M155.13,147.9769 C155.13,169.2269 155.13,182.6369 155.13,182.6369 C155.13,182.6369 369.16,182.6369 369.16,182.6369 C369.16,182.6369 369.16,195.4069 369.16,226.0469" fill="none" id="instituicoes-professores" style="stroke:#181818;stroke-width:1;"/><line style="stroke:#181818;stroke-width:1;" x1="151.13" x2="159.13" y1="143.9769" y2="143.9769"/><line style="stroke:#181818;stroke-width:1;" x1="151.13" x2="159.13" y1="146.9769" y2="146.9769"/><line style="stroke:#181818;stroke-width:1;" x1="155.13" x2="155.13" y1="147.9769" y2="139.9769"/><line style="stroke:#181818;stroke-width:1;" x1="369.16" x2="375.16" y1="236.0469" y2="244.0469"/><line style="stroke:#181818;stroke-width:1;" x1="369.16" x2="363.16" y1="236.0469" y2="244.0469"/><line style="stroke:#181818;stroke-width:1;" x1="369.16" x2="369.16" y1="236.0469" y2="244.0469"/><ellipse cx="369.16" cy="230.0469" fill="none" rx="4" ry="4" style="stroke:#181818;stroke-width:1;"/><text fill="#000000" font-family="sans-serif" font-size="11" lengthAdjust="spacing" textLength="59.3774" x="211.52" y="193.8473">pertence a</text></g><!--link empresas_parceiras to vantagens--><g class="link" data-entity-1="ent0005" data-entity-2="ent0007" data-link-type="crowfoot" data-source-line="118" id="lnk15"><path codeLine="118" d="M662.25,354.2469 C662.25,385.4069 662.25,402.7269 662.25,438.8069" fill="none" id="empresas_parceiras-vantagens" style="stroke:#181818;stroke-width:1;"/><line style="stroke:#181818;stroke-width:1;" x1="658.25" x2="666.25" y1="350.2469" y2="350.2469"/><line style="stroke:#181818;stroke-width:1;" x1="658.25" x2="666.25" y1="353.2469" y2="353.2469"/><line style="stroke:#181818;stroke-width:1;" x1="662.25" x2="662.25" y1="354.2469" y2="346.2469"/><line style="stroke:#181818;stroke-width:1;" x1="662.25" x2="668.25" y1="448.8069" y2="456.8069"/><line style="stroke:#181818;stroke-width:1;" x1="662.25" x2="656.25" y1="448.8069" y2="456.8069"/><line style="stroke:#181818;stroke-width:1;" x1="662.25" x2="662.25" y1="448.8069" y2="456.8069"/><ellipse cx="662.25" cy="442.8069" fill="none" rx="4" ry="4" style="stroke:#181818;stroke-width:1;"/><text fill="#000000" font-family="sans-serif" font-size="11" lengthAdjust="spacing" textLength="41.4756" x="620.25" y="398.7373">oferece</text></g><!--link professores to transferencias_moedas--><g class="link" data-entity-1="ent0004" data-entity-2="ent0008" data-link-type="crowfoot" data-source-line="121" id="lnk16"><path codeLine="121" d="M380.68,373.5269 C380.68,403.9469 380.68,414.6669 380.68,445.0969" fill="none" id="professores-transferencias_moedas" style="stroke:#181818;stroke-width:1;"/><line style="stroke:#181818;stroke-width:1;" x1="376.68" x2="384.68" y1="369.5269" y2="369.5269"/><line style="stroke:#181818;stroke-width:1;" x1="376.68" x2="384.68" y1="372.5269" y2="372.5269"/><line style="stroke:#181818;stroke-width:1;" x1="380.68" x2="380.68" y1="373.5269" y2="365.5269"/><line style="stroke:#181818;stroke-width:1;" x1="380.68" x2="386.68" y1="455.0969" y2="463.0969"/><line style="stroke:#181818;stroke-width:1;" x1="380.68" x2="374.68" y1="455.0969" y2="463.0969"/><line style="stroke:#181818;stroke-width:1;" x1="380.68" x2="380.68" y1="455.0969" y2="463.0969"/><ellipse cx="380.68" cy="449.0969" fill="none" rx="4" ry="4" style="stroke:#181818;stroke-width:1;"/><text fill="#000000" font-family="sans-serif" font-size="11" lengthAdjust="spacing" textLength="30.0459" x="349.68" y="411.5273">envia</text></g><!--link alunos to transferencias_moedas--><g class="link" data-entity-1="ent0003" data-entity-2="ent0008" data-link-type="crowfoot" data-source-line="122" id="lnk17"><path codeLine="122" d="M232.8,405.4069 C232.8,427.6169 232.8,424.7769 232.8,445.1169" fill="none" id="alunos-transferencias_moedas" style="stroke:#181818;stroke-width:1;"/><line style="stroke:#181818;stroke-width:1;" x1="228.8" x2="236.8" y1="401.4069" y2="401.4069"/><line style="stroke:#181818;stroke-width:1;" x1="228.8" x2="236.8" y1="404.4069" y2="404.4069"/><line style="stroke:#181818;stroke-width:1;" x1="232.8" x2="232.8" y1="405.4069" y2="397.4069"/><line style="stroke:#181818;stroke-width:1;" x1="232.8" x2="238.8" y1="455.1169" y2="463.1169"/><line style="stroke:#181818;stroke-width:1;" x1="232.8" x2="226.8" y1="455.1169" y2="463.1169"/><line style="stroke:#181818;stroke-width:1;" x1="232.8" x2="232.8" y1="455.1169" y2="463.1169"/><ellipse cx="232.8" cy="449.1169" fill="none" rx="4" ry="4" style="stroke:#181818;stroke-width:1;"/><text fill="#000000" font-family="sans-serif" font-size="11" lengthAdjust="spacing" textLength="37.8555" x="194.8" y="427.4773">recebe</text></g><!--link alunos to resgates--><g class="link" data-entity-1="ent0003" data-entity-2="ent0009" data-link-type="crowfoot" data-source-line="125" id="lnk18"><path codeLine="125" d="M110.56,405.5869 C110.56,525.6769 110.56,711.6369 110.56,711.6369 C110.56,711.6369 169.98,711.6369 244.07,711.6369" fill="none" id="alunos-resgates" style="stroke:#181818;stroke-width:1;"/><line style="stroke:#181818;stroke-width:1;" x1="106.56" x2="114.56" y1="401.5869" y2="401.5869"/><line style="stroke:#181818;stroke-width:1;" x1="106.56" x2="114.56" y1="404.5869" y2="404.5869"/><line style="stroke:#181818;stroke-width:1;" x1="110.56" x2="110.56" y1="405.5869" y2="397.5869"/><line style="stroke:#181818;stroke-width:1;" x1="254.07" x2="262.07" y1="711.6369" y2="705.6369"/><line style="stroke:#181818;stroke-width:1;" x1="254.07" x2="262.07" y1="711.6369" y2="717.6369"/><line style="stroke:#181818;stroke-width:1;" x1="254.07" x2="262.07" y1="711.6369" y2="711.6369"/><ellipse cx="248.07" cy="711.6369" fill="none" rx="4" ry="4" style="stroke:#181818;stroke-width:1;"/><text fill="#000000" font-family="sans-serif" font-size="11" lengthAdjust="spacing" textLength="36.6577" x="73.56" y="627.5773">realiza</text></g><!--link vantagens to resgates--><g class="link" data-entity-1="ent0007" data-entity-2="ent0009" data-link-type="crowfoot" data-source-line="126" id="lnk19"><path codeLine="126" d="M521.21,599.0569 C521.21,618.4669 521.21,613.5469 521.21,632.5369" fill="none" id="vantagens-resgates" style="stroke:#181818;stroke-width:1;"/><line style="stroke:#181818;stroke-width:1;" x1="517.21" x2="525.21" y1="595.0569" y2="595.0569"/><line style="stroke:#181818;stroke-width:1;" x1="517.21" x2="525.21" y1="598.0569" y2="598.0569"/><line style="stroke:#181818;stroke-width:1;" x1="521.21" x2="521.21" y1="599.0569" y2="591.0569"/><line style="stroke:#181818;stroke-width:1;" x1="521.21" x2="527.21" y1="642.5369" y2="650.5369"/><line style="stroke:#181818;stroke-width:1;" x1="521.21" x2="515.21" y1="642.5369" y2="650.5369"/><line style="stroke:#181818;stroke-width:1;" x1="521.21" x2="521.21" y1="642.5369" y2="650.5369"/><ellipse cx="521.21" cy="636.5369" fill="none" rx="4" ry="4" style="stroke:#181818;stroke-width:1;"/><text fill="#000000" font-family="sans-serif" font-size="11" lengthAdjust="spacing" textLength="86.7646" x="434.21" y="618.0073">&#233; resgatada em</text></g><?plantuml-src rLVDRjj64BxpAGRg8N9W0NPHmwWH161iAX5Y_PIIWjo4CJcI5o6vnExIHH8NoAddeWXwBte8Kg37vWNq9dwIpF97eI8M5jeYLWITTdvsPhwPRvP6c8XWBBIX624aw4iA4JnjiX0J8oAuUVCMpWGk5BA2nqSXXjJnAS90o0HZIenq7Fr292co3aGY8VCo9P3ANCgQ8AGvPf7foiICnIk2myEQaBq8yn9UEm2FC7YnK39BmbCPIGNVTBlTC-_OIgGAILMdHyVTmsFd9yUv1pTltzpLds-72LvmEU02DTaIOcPiEW4ktot_a7SSNbdOLgOpL4BgLbxZ-o12E87fj7S63nwCdZvyo8UTJYxXHc3OJ-2Pwvy-SVtsjqT7Uwmq7VH-c7gvudtGb5pYx1BrvMUAkJJ5bAm7Rp3jjztpwM2u3oD_sFN6uw6_3rv_v7jZTpPYEw_dkuLHe0I6SaOn6qvwVMyySViZEFEwxlHy0edyiRst4s2FICs51j8f1Sk_vYAG6b9ko3pf7G4Reopv9wZteViKRdx-5QgEg6EVo9YQ40tIUUtuyBkDXb2Bkjb1OHL9PerGPaes-ioPfExseBGZRTYC9OL1gKvfJVVxyZ1JMZQvq1XnCyMMp3JBUuE9zzZpL-rqK1GcqLolZ2TLpkf5AWkq4akoHUBcg-gRAZadhQMYBrhaa9WiJK6v_o9frlkFULESSigePnn7G4BX_vb-I9evW6Eo1E0zd-p4jFVAMkHK3krKBTzt0kJw6kvitDkHUQyZTZl1VrK0dA9P_iv48krclU8d2IueqJjIzrKysspLV7IQvcrpgifvtneeUvYfQ3QNQyHmL153a6cpIGov28suGZvxD1oUU-vWHHP6PRGRZok5YRPFgRzfLs0tDgGvAKe2mR0LTRsz1LPRewa9QYkbH3zVuasgnNOljQxGleRNCOqbWxhM78em4g-OiMvzNrKvSXmBDDlGoRPnvgCIDockngZK3MGe5d8MPAcCrzfvOoCsPLz4_bMy9TU_ekwwlVdw9yIjlNo79zNcPdn-WRJXoTisU15HXqMT84AjzvngryFrTQSZhqluuTFl15hBzv35SFFRXzQ6Ucq0jb7V9CsL0HOMd8vhGm22KUNRfi8VPm5t1gxlTgU-GujBNg-dmEvZDCoxMMHVfnIt6ctMyc2RwaR0F2IlY9i_6RJEH6sZDIHKUbpfM7VIyav0kQz9oKFBFtCYiXkou2Ad7aJffP6qh4TAhWJ7Li_rDXCRmKKHWr_oHCs-jAuOf338-QVbVCgbGOlHguONRNq_0W00?></g></svg>