<svg xmlns="http://www.w3.org/2000/svg" xmlns:xlink="http://www.w3.org/1999/xlink" contentStyleType="text/css" data-diagram-type="DESCRIPTION" height="1292px" preserveAspectRatio="none" style="width:1329px;height:1292px;background:#FFFFFF;" version="1.1" viewBox="0 0 1329 1292" width="1329px" zoomAndPan="magnify"><?plantuml 1.2026.4beta2?><defs/><g><g class="title" data-source-line="1"><text fill="#000000" font-family="sans-serif" font-size="14" font-weight="700" lengthAdjust="spacing" textLength="464.249" x="429.2955" y="22.9951">Sistema de Moeda Estudantil &#8212; Diagrama de Casos de Uso</text></g><!--cluster Sistema de Moeda Estudantil--><g class="cluster" data-qualified-name="Sistema de Moeda Estudantil" data-source-line="12" id="ent0006"><rect fill="none" height="925" rx="2.5" ry="2.5" style="stroke:#181818;stroke-width:1;" width="1193.1" x="122.74" y="191.0969"/><text fill="#000000" font-family="sans-serif" font-size="14" font-weight="700" lengthAdjust="spacing" textLength="230.3711" x="604.1045" y="206.092">Sistema de Moeda Estudantil</text></g><!--cluster Autentica??o e Cadastro--><g class="cluster" data-qualified-name="Sistema de Moeda Estudantil.Autentica..o e Cadastro" data-source-line="14" id="ent0007"><rect fill="none" height="272" rx="2.5" ry="2.5" style="stroke:#181818;stroke-width:1;" width="299.34" x="146.74" y="234.0969"/><text fill="#000000" font-family="sans-serif" font-size="14" font-weight="700" lengthAdjust="spacing" textLength="193.5391" x="199.6405" y="249.092">Autentica&#231;&#227;o e Cadastro</text></g><!--cluster Gest?o de Moedas--><g class="cluster" data-qualified-name="Sistema de Moeda Estudantil.Gest.o de Moedas" data-source-line="20" id="ent0011"><rect fill="none" height="182" rx="2.5" ry="2.5" style="stroke:#181818;stroke-width:1;" width="666.21" x="163.94" y="530.0969"/><text fill="#000000" font-family="sans-serif" font-size="14" font-weight="700" lengthAdjust="spacing" textLength="145.1885" x="424.4508" y="545.092">Gest&#227;o de Moedas</text></g><!--cluster Vantagens--><g class="cluster" data-qualified-name="Sistema de Moeda Estudantil.Vantagens" data-source-line="26" id="ent0015"><rect fill="none" height="356" rx="2.5" ry="2.5" style="stroke:#181818;stroke-width:1;" width="305.25" x="541.08" y="736.0969"/><text fill="#000000" font-family="sans-serif" font-size="14" font-weight="700" lengthAdjust="spacing" textLength="84.2051" x="651.6025" y="751.092">Vantagens</text></g><!--cluster Notifica??es--><g class="cluster" data-qualified-name="Sistema de Moeda Estudantil.Notifica..es" data-source-line="33" id="ent0020"><rect fill="none" height="319" rx="2.5" ry="2.5" style="stroke:#181818;stroke-width:1;" width="348.51" x="943.33" y="773.0969"/><text fill="#000000" font-family="sans-serif" font-size="14" font-weight="700" lengthAdjust="spacing" textLength="97.207" x="1068.9815" y="788.092">Notifica&#231;&#245;es</text></g><!--entity UC01--><g class="entity" data-qualified-name="Sistema de Moeda Estudantil.Autentica..o e Cadastro.UC01" data-source-line="15" id="ent0008"><ellipse cx="296.4127" cy="469.0934" fill="#F1F1F1" rx="94.8827" ry="21.3765" style="stroke:#181818;stroke-width:0.5;"/><text fill="#000000" font-family="sans-serif" font-size="14" lengthAdjust="spacing" textLength="164.7119" x="214.0567" y="473.7419">UC01 - Cadastrar Aluno</text></g><!--entity UC02--><g class="entity" data-qualified-name="Sistema de Moeda Estudantil.Autentica..o e Cadastro.UC02" data-source-line="16" id="ent0009"><ellipse cx="296.4083" cy="298.1005" fill="#F1F1F1" rx="133.6683" ry="29.1337" style="stroke:#181818;stroke-width:0.5;"/><text fill="#000000" font-family="sans-serif" font-size="14" lengthAdjust="spacing" textLength="248.3086" x="172.254" y="302.749">UC02 - Cadastrar Empresa Parceira</text></g><!--entity UC03--><g class="entity" data-qualified-name="Sistema de Moeda Estudantil.Autentica..o e Cadastro.UC03" data-source-line="17" id="ent0010"><ellipse cx="296.4052" cy="387.0959" fill="#F1F1F1" rx="114.3952" ry="25.279" style="stroke:#181818;stroke-width:0.5;"/><text fill="#000000" font-family="sans-serif" font-size="14" lengthAdjust="spacing" textLength="207.3545" x="192.728" y="391.7444">UC03 - Autenticar no Sistema</text></g><!--entity UC04--><g class="entity" data-qualified-name="Sistema de Moeda Estudantil.Gest.o de Moedas.UC04" data-source-line="21" id="ent0012"><ellipse cx="693.6974" cy="666.0964" fill="#F1F1F1" rx="120.4474" ry="26.4895" style="stroke:#181818;stroke-width:0.5;"/><text fill="#000000" font-family="sans-serif" font-size="14" lengthAdjust="spacing" textLength="220.3086" x="583.5431" y="670.7448">UC04 - Enviar Moedas ao Aluno</text></g><!--entity UC05--><g class="entity" data-qualified-name="Sistema de Moeda Estudantil.Gest.o de Moedas.UC05" data-source-line="22" id="ent0013"><ellipse cx="296.413" cy="587.1015" fill="#F1F1F1" rx="99.223" ry="22.2446" style="stroke:#181818;stroke-width:0.5;"/><text fill="#000000" font-family="sans-serif" font-size="14" lengthAdjust="spacing" textLength="174.3438" x="209.2411" y="591.7499">UC05 - Consultar Extrato</text></g><!--entity UC06--><g class="entity" data-qualified-name="Sistema de Moeda Estudantil.Gest.o de Moedas.UC06" data-source-line="23" id="ent0014"><ellipse cx="296.4091" cy="670.1007" fill="#F1F1F1" rx="116.4691" ry="25.6938" style="stroke:#181818;stroke-width:0.5;"/><text fill="#000000" font-family="sans-serif" font-size="14" lengthAdjust="spacing" textLength="211.8047" x="190.5067" y="674.7491">UC06 - Repor Saldo Semestral</text></g><!--entity UC07--><g class="entity" data-qualified-name="Sistema de Moeda Estudantil.Vantagens.UC07" data-source-line="27" id="ent0016"><ellipse cx="693.7016" cy="795.1012" fill="#F1F1F1" rx="109.6716" ry="24.3343" style="stroke:#181818;stroke-width:0.5;"/><text fill="#000000" font-family="sans-serif" font-size="14" lengthAdjust="spacing" textLength="197.1689" x="595.1171" y="799.7496">UC07 - Cadastrar Vantagem</text></g><!--entity UC08--><g class="entity" data-qualified-name="Sistema de Moeda Estudantil.Vantagens.UC08" data-source-line="28" id="ent0017"><ellipse cx="693.7042" cy="876.1017" fill="#F1F1F1" rx="97.2242" ry="21.8448" style="stroke:#181818;stroke-width:0.5;"/><text fill="#000000" font-family="sans-serif" font-size="14" lengthAdjust="spacing" textLength="169.9209" x="608.7438" y="880.7502">UC08 - Editar Vantagem</text></g><!--entity UC09--><g class="entity" data-qualified-name="Sistema de Moeda Estudantil.Vantagens.UC09" data-source-line="29" id="ent0018"><ellipse cx="693.7039" cy="963.1017" fill="#F1F1F1" rx="136.6239" ry="29.7248" style="stroke:#181818;stroke-width:0.5;"/><text fill="#000000" font-family="sans-serif" font-size="14" lengthAdjust="spacing" textLength="254.5225" x="566.4427" y="967.7501">UC09 - Listar Vantagens Dispon&#237;veis</text></g><!--entity UC10--><g class="entity" data-qualified-name="Sistema de Moeda Estudantil.Vantagens.UC10" data-source-line="30" id="ent0019"><ellipse cx="693.7013" cy="1052.0991" fill="#F1F1F1" rx="107.0113" ry="23.8023" style="stroke:#181818;stroke-width:0.5;"/><text fill="#000000" font-family="sans-serif" font-size="14" lengthAdjust="spacing" textLength="191.3994" x="598.0016" y="1056.7476">UC10 - Resgatar Vantagem</text></g><!--entity UC11--><g class="entity" data-qualified-name="Sistema de Moeda Estudantil.Notifica..es.UC11" data-source-line="34" id="ent0021"><ellipse cx="1117.5883" cy="841.0985" fill="#F1F1F1" rx="152.9083" ry="32.9817" style="stroke:#181818;stroke-width:0.5;"/><text fill="#000000" font-family="sans-serif" font-size="14" lengthAdjust="spacing" textLength="288.5313" x="973.3227" y="845.747">UC11 - Notificar Recebimento de Moedas</text></g><!--entity UC12--><g class="entity" data-qualified-name="Sistema de Moeda Estudantil.Notifica..es.UC12" data-source-line="35" id="ent0022"><ellipse cx="1117.5875" cy="1042.0984" fill="#F1F1F1" rx="158.2575" ry="34.0515" style="stroke:#181818;stroke-width:0.5;"/><text fill="#000000" font-family="sans-serif" font-size="14" lengthAdjust="spacing" textLength="299.6328" x="967.7711" y="1046.7468">UC12 - Enviar Cupom de Resgate ao Aluno</text></g><!--entity UC13--><g class="entity" data-qualified-name="Sistema de Moeda Estudantil.Notifica..es.UC13" data-source-line="36" id="ent0023"><ellipse cx="1117.5906" cy="941.093" fill="#F1F1F1" rx="149.9306" ry="32.3861" style="stroke:#181818;stroke-width:0.5;"/><text fill="#000000" font-family="sans-serif" font-size="14" lengthAdjust="spacing" textLength="282.3379" x="976.4216" y="945.7414">UC13 - Notificar Empresa sobre Resgate</text></g><!--entity Aluno--><g class="entity" data-qualified-name="Aluno" data-source-line="7" id="ent0002"><ellipse cx="40.87" cy="564.9469" fill="#F1F1F1" rx="16" ry="16" style="stroke:#181818;stroke-width:0.5;"/><path d="M40.87,584.9469 C44.87,584.9469 47.87,584.9469 51.87,580.9469 C59.87,580.9469 67.87,588.9469 67.87,596.9469 L67.87,600.9469 C67.87,604.9469 63.87,608.9469 59.87,608.9469 L21.87,608.9469 C17.87,608.9469 13.87,604.9469 13.87,600.9469 L13.87,596.9469 C13.87,588.9469 21.87,580.9469 29.87,580.9469 C33.87,584.9469 36.87,584.9469 40.87,584.9469" fill="#F1F1F1" style="stroke:#181818;stroke-width:0.5;"/><text fill="#000000" font-family="sans-serif" font-size="14" lengthAdjust="spacing" textLength="39.7783" x="20.9808" y="622.442">Aluno</text></g><!--entity Professor--><g class="entity" data-qualified-name="Professor" data-source-line="8" id="ent0003"><ellipse cx="40.8674" cy="364.9469" fill="#F1F1F1" rx="16" ry="16" style="stroke:#181818;stroke-width:0.5;"/><path d="M40.8674,384.9469 C44.8674,384.9469 47.8674,384.9469 51.8674,380.9469 C59.8674,380.9469 67.8674,388.9469 67.8674,396.9469 L67.8674,400.9469 C67.8674,404.9469 63.8674,408.9469 59.8674,408.9469 L21.8674,408.9469 C17.8674,408.9469 13.8674,404.9469 13.8674,400.9469 L13.8674,396.9469 C13.8674,388.9469 21.8674,380.9469 29.8674,380.9469 C33.8674,384.9469 36.8674,384.9469 40.8674,384.9469" fill="#F1F1F1" style="stroke:#181818;stroke-width:0.5;"/><text fill="#000000" font-family="sans-serif" font-size="14" lengthAdjust="spacing" textLength="65.2148" x="8.26" y="422.442">Professor</text></g><!--entity Empresa--><g class="entity" data-qualified-name="Empresa" data-source-line="9" id="ent0004"><ellipse cx="40.8762" cy="190.7969" fill="#F1F1F1" rx="16" ry="16" style="stroke:#181818;stroke-width:0.5;"/><path d="M40.8762,210.7969 C44.8762,210.7969 47.8762,210.7969 51.8762,206.7969 C59.8762,206.7969 67.8762,214.7969 67.8762,222.7969 L67.8762,226.7969 C67.8762,230.7969 63.8762,234.7969 59.8762,234.7969 L21.8762,234.7969 C17.8762,234.7969 13.8762,230.7969 13.8762,226.7969 L13.8762,222.7969 C13.8762,214.7969 21.8762,206.7969 29.8762,206.7969 C33.8762,210.7969 36.8762,210.7969 40.8762,210.7969" fill="#F1F1F1" style="stroke:#181818;stroke-width:0.5;"/><text fill="#000000" font-family="sans-serif" font-size="14" lengthAdjust="spacing" textLength="61.6123" x="10.07" y="248.292">Empresa</text><text fill="#000000" font-family="sans-serif" font-size="14" lengthAdjust="spacing" textLength="57.3125" x="10.07" y="264.5889">Parceira</text></g><!--entity Sistema--><g class="entity" data-qualified-name="Sistema" data-source-line="10" id="ent0005"><ellipse cx="40.8721" cy="889.0938" fill="#F1F1F1" rx="16" ry="16" style="stroke:#181818;stroke-width:0.5;"/><path d="M40.8721,909.0938 C44.8721,909.0938 47.8721,909.0938 51.8721,905.0938 C59.8721,905.0938 67.8721,913.0938 67.8721,921.0938 L67.8721,925.0938 C67.8721,929.0938 63.8721,933.0938 59.8721,933.0938 L21.8721,933.0938 C17.8721,933.0938 13.8721,929.0938 13.8721,925.0938 L13.8721,921.0938 C13.8721,913.0938 21.8721,905.0938 29.8721,905.0938 C33.8721,909.0938 36.8721,909.0938 40.8721,909.0938" fill="#F1F1F1" style="stroke:#181818;stroke-width:0.5;"/><text fill="#000000" font-family="sans-serif" font-size="14" lengthAdjust="spacing" textLength="56.3896" x="12.6772" y="946.5889">Sistema</text><text fill="#000000" font-family="sans-serif" font-size="14" font-style="italic" lengthAdjust="spacing" textLength="67.7441" x="7" y="869.292">&#171;system&#187;</text></g><g class="entity" data-qualified-name="GMN41" data-source-line="71" id="ent0042"><path d="M1028.14,1132.3969 L1028.14,1187.7953 L1207.0316,1187.7953 L1207.0316,1142.3969 L1197.0316,1132.3969 L1028.14,1132.3969" fill="#FEFFDD" style="stroke:#181818;stroke-width:0.5;"/><path d="M1197.0316,1132.3969 L1197.0316,1142.3969 L1207.0316,1142.3969 L1197.0316,1132.3969" fill="#FEFFDD" style="stroke:#181818;stroke-width:1;"/><text fill="#000000" font-family="sans-serif" font-size="13" lengthAdjust="spacing" textLength="157.8916" x="1034.14" y="1149.4638">Professor deve ter saldo</text><text fill="#000000" font-family="sans-serif" font-size="13" lengthAdjust="spacing" textLength="127.2134" x="1034.14" y="1164.5966">suficiente. Motivo &#233;</text><text fill="#000000" font-family="sans-serif" font-size="13" lengthAdjust="spacing" textLength="123.5889" x="1034.14" y="1179.7294">campo obrigat&#243;rio.</text></g><g class="entity" data-qualified-name="GMN44" data-source-line="77" id="ent0045"><path d="M1015.31,1222.3969 L1015.31,1277.7953 L1219.8525,1277.7953 L1219.8525,1232.3969 L1209.8525,1222.3969 L1015.31,1222.3969" fill="#FEFFDD" style="stroke:#181818;stroke-width:0.5;"/><path d="M1209.8525,1222.3969 L1209.8525,1232.3969 L1219.8525,1232.3969 L1209.8525,1222.3969" fill="#FEFFDD" style="stroke:#181818;stroke-width:1;"/><text fill="#000000" font-family="sans-serif" font-size="13" lengthAdjust="spacing" textLength="180.4131" x="1021.31" y="1239.4638">Saldo descontado do aluno.</text><text fill="#000000" font-family="sans-serif" font-size="13" lengthAdjust="spacing" textLength="153.1943" x="1021.31" y="1254.5966">C&#243;digo de cupom &#250;nico</text><text fill="#000000" font-family="sans-serif" font-size="13" lengthAdjust="spacing" textLength="183.5425" x="1021.31" y="1269.7294">gerado e enviado por email.</text></g><g class="entity" data-qualified-name="GMN47" data-source-line="83" id="ent0048"><path d="M589.01,1132.3969 L589.01,1187.7953 L798.4084,1187.7953 L798.4084,1142.3969 L788.4084,1132.3969 L589.01,1132.3969" fill="#FEFFDD" style="stroke:#181818;stroke-width:0.5;"/><path d="M788.4084,1132.3969 L788.4084,1142.3969 L798.4084,1142.3969 L788.4084,1132.3969" fill="#FEFFDD" style="stroke:#181818;stroke-width:1;"/><text fill="#000000" font-family="sans-serif" font-size="13" lengthAdjust="spacing" textLength="188.3984" x="595.01" y="1149.4638">Executado automaticamente</text><text fill="#000000" font-family="sans-serif" font-size="13" lengthAdjust="spacing" textLength="171.0313" x="595.01" y="1164.5966">a cada in&#237;cio de semestre.</text><text fill="#000000" font-family="sans-serif" font-size="13" lengthAdjust="spacing" textLength="136.6206" x="595.01" y="1179.7294">Saldo &#233; acumulativo.</text></g><!--link Aluno to UC01--><g class="link" data-entity-1="ent0002" data-entity-2="ent0008" data-link-type="dependency" data-source-line="41" id="lnk24"><path d="M68.66,572.6069 C82.34,565.3369 99.32,556.5269 114.74,549.0969 C160.33,527.1469 207.8441,506.298 244.6141,490.558" fill="none" id="Aluno-to-UC01" style="stroke:#181818;stroke-width:1;"/><polygon fill="#181818" points="250.13,488.1969,240.2821,488.0614,245.5334,490.1645,243.4303,495.4159,250.13,488.1969" style="stroke:#181818;stroke-width:1;"/></g><!--link Aluno to UC03--><g class="link" data-entity-1="ent0002" data-entity-2="ent0010" data-link-type="dependency" data-source-line="42" id="lnk25"><path d="M49.74,548.2069 C59.08,512.2369 78.21,459.9469 114.74,430.0969 C135.72,412.9669 156.5494,403.8625 182.9094,397.4625" fill="none" id="Aluno-to-UC03" style="stroke:#181818;stroke-width:1;"/><polygon fill="#181818" points="188.74,396.0469,179.0503,394.2832,183.8812,397.2266,180.9378,402.0574,188.74,396.0469" style="stroke:#181818;stroke-width:1;"/></g><!--link Aluno to UC05--><g class="link" data-entity-1="ent0002" data-entity-2="ent0013" data-link-type="dependency" data-source-line="43" id="lnk26"><path d="M68.53,587.0969 C98.98,587.0969 144.58,587.0969 190.89,587.0969" fill="none" id="Aluno-to-UC05" style="stroke:#181818;stroke-width:1;"/><polygon fill="#181818" points="196.89,587.0969,187.89,583.0969,191.89,587.0969,187.89,591.0969,196.89,587.0969" style="stroke:#181818;stroke-width:1;"/></g><!--link Aluno to UC09--><g class="link" data-entity-1="ent0002" data-entity-2="ent0018" data-link-type="dependency" data-source-line="44" id="lnk27"><path d="M57.31,626.1069 C69.57,653.0469 88.95,688.1969 114.74,712.0969 C266.32,852.5669 340.55,839.9869 533.08,915.0969 C556.54,924.2469 576.7323,931.0054 600.7723,938.2054" fill="none" id="Aluno-to-UC09" style="stroke:#181818;stroke-width:1;"/><polygon fill="#181818" points="606.52,939.9269,599.046,933.5129,601.7302,938.4923,596.7507,941.1765,606.52,939.9269" style="stroke:#181818;stroke-width:1;"/></g><!--link Aluno to UC10--><g class="link" data-entity-1="ent0002" data-entity-2="ent0019" data-link-type="dependency" data-source-line="45" id="lnk28"><path d="M46.15,626.0769 C55.03,700.0469 77.79,856.7869 114.74,895.0969 C238.82,1023.7169 450.8124,1050.2283 580.6824,1053.8783" fill="none" id="Aluno-to-UC10" style="stroke:#181818;stroke-width:1;"/><polygon fill="#181818" points="586.68,1054.0469,577.7959,1049.7956,581.682,1053.9064,577.5712,1057.7925,586.68,1054.0469" style="stroke:#181818;stroke-width:1;"/></g><!--link Professor to UC03--><g class="link" data-entity-1="ent0003" data-entity-2="ent0010" data-link-type="dependency" data-source-line="48" id="lnk29"><path d="M73.73,387.0969 C101.06,387.0969 136.16,387.0969 175.58,387.0969" fill="none" id="Professor-to-UC03" style="stroke:#181818;stroke-width:1;"/><polygon fill="#181818" points="181.58,387.0969,172.58,383.0969,176.58,387.0969,172.58,391.0969,181.58,387.0969" style="stroke:#181818;stroke-width:1;"/></g><!--link Professor to UC04--><g class="link" data-entity-1="ent0003" data-entity-2="ent0012" data-link-type="dependency" data-source-line="49" id="lnk30"><path d="M51.35,347.9569 C61.32,316.1969 80.49,273.4669 114.74,253.0969 C244.38,176.0269 323.46,177.7069 454.08,253.0969 C604.7,340.0269 667.403,556.407 685.573,633.467" fill="none" id="Professor-to-UC04" style="stroke:#181818;stroke-width:1;"/><polygon fill="#181818" points="686.95,639.3069,688.7778,629.6291,685.8025,634.4403,680.9913,631.4651,686.95,639.3069" style="stroke:#181818;stroke-width:1;"/></g><!--link Professor to UC05--><g class="link" data-entity-1="ent0003" data-entity-2="ent0013" data-link-type="dependency" data-source-line="50" id="lnk31"><path d="M58.32,426.1269 C70.71,451.6369 89.82,484.1769 114.74,506.0969 C148.81,536.0669 190.1071,554.7129 227.6171,567.6329" fill="none" id="Professor-to-UC05" style="stroke:#181818;stroke-width:1;"/><polygon fill="#181818" points="233.29,569.5869,226.0833,562.874,228.5626,567.9586,223.478,570.4378,233.29,569.5869" style="stroke:#181818;stroke-width:1;"/></g><!--link Empresa to UC02--><g class="link" data-entity-1="ent0004" data-entity-2="ent0009" data-link-type="dependency" data-source-line="53" id="lnk32"><path d="M71.95,230.2369 C107.43,241.0069 162.059,257.5929 211.109,272.4929" fill="none" id="Empresa-to-UC02" style="stroke:#181818;stroke-width:1;"/><polygon fill="#181818" points="216.85,274.2369,209.4012,267.7937,212.0659,272.7836,207.0759,275.4483,216.85,274.2369" style="stroke:#181818;stroke-width:1;"/></g><!--link Empresa to UC03--><g class="link" data-entity-1="ent0004" data-entity-2="ent0010" data-link-type="dependency" data-source-line="54" id="lnk33"><path d="M58.72,268.2869 C70.49,294.6769 88.79,326.0169 114.74,345.0969 C136.67,361.2169 157.9595,369.8926 184.4795,376.1326" fill="none" id="Empresa-to-UC03" style="stroke:#181818;stroke-width:1;"/><polygon fill="#181818" points="190.32,377.5069,182.4754,371.5519,185.4529,376.3617,180.6431,379.3392,190.32,377.5069" style="stroke:#181818;stroke-width:1;"/></g><!--link Empresa to UC07--><g class="link" data-entity-1="ent0004" data-entity-2="ent0016" data-link-type="dependency" data-source-line="55" id="lnk34"><path d="M72.11,192.8069 C82.08,185.2269 93.71,178.0469 105.74,174.0969 C282.82,115.9669 392.32,43.2969 525.08,174.0969 C535.73,184.5869 525.23,699.3769 533.08,712.0969 C552.61,743.7269 582.8641,761.7481 615.6541,774.2581" fill="none" id="Empresa-to-UC07" style="stroke:#181818;stroke-width:1;"/><polygon fill="#181818" points="621.26,776.3969,614.277,769.4515,616.5884,774.6146,611.4254,776.926,621.26,776.3969" style="stroke:#181818;stroke-width:1;"/></g><!--link Empresa to UC08--><g class="link" data-entity-1="ent0004" data-entity-2="ent0017" data-link-type="dependency" data-source-line="56" id="lnk35"><path d="M71.99,212.7469 C146.82,193.9969 343.11,157.2869 454.08,253.0969 C556.48,341.5069 507.33,414.9769 525.08,549.0969 C527.18,564.9669 523.02,824.6469 533.08,837.0969 C548.86,856.6269 566.8043,865.9849 591.2343,871.6349" fill="none" id="Empresa-to-UC08" style="stroke:#181818;stroke-width:1;"/><polygon fill="#181818" points="597.08,872.9869,589.2128,867.0618,592.2086,871.8602,587.4101,874.8561,597.08,872.9869" style="stroke:#181818;stroke-width:1;"/></g><!--link Sistema to UC06--><g class="link" data-entity-1="ent0005" data-entity-2="ent0014" data-link-type="dependency" data-source-line="59" id="lnk36"><path d="M76.07,871.6769 C126.89,824.9669 216.942,742.2065 263.542,699.3865" fill="none" id="Sistema-to-UC06" style="stroke:#181818;stroke-width:1;"/><polygon fill="#181818" points="267.96,695.3269,258.6265,698.471,264.2783,698.7099,264.0394,704.3617,267.96,695.3269" style="stroke:#181818;stroke-width:1;"/></g><!--link UC04 to UC11--><g class="link" data-entity-1="ent0012" data-entity-2="ent0021" data-link-type="dependency" data-source-line="62" id="lnk37"><path d="M751.6,689.6969 C827.73,721.2769 957.188,774.9777 1039.938,809.3077" fill="none" id="UC04-to-UC11" style="stroke:#181818;stroke-width:1;stroke-dasharray:7,7;"/><polygon fill="#181818" points="1045.48,811.6069,1038.6998,804.4634,1040.8617,809.6909,1035.6342,811.8528,1045.48,811.6069" style="stroke:#181818;stroke-width:1;"/><text fill="#000000" font-family="sans-serif" font-size="13" lengthAdjust="spacing" textLength="63.0068" x="863.33" y="734.1638">&#171;include&#187;</text></g><!--link UC10 to UC12--><g class="link" data-entity-1="ent0019" data-entity-2="ent0022" data-link-type="dependency" data-source-line="63" id="lnk38"><path d="M800.62,1049.5869 C848.82,1048.4469 900.8617,1047.2092 953.9617,1045.9492" fill="none" id="UC10-to-UC12" style="stroke:#181818;stroke-width:1;stroke-dasharray:7,7;"/><polygon fill="#181818" points="959.96,1045.8069,950.8676,1042.0215,954.9614,1045.9255,951.0574,1050.0192,959.96,1045.8069" style="stroke:#181818;stroke-width:1;"/><text fill="#000000" font-family="sans-serif" font-size="13" lengthAdjust="spacing" textLength="63.0068" x="863.33" y="1043.1638">&#171;include&#187;</text></g><!--link UC10 to UC13--><g class="link" data-entity-1="ent0019" data-entity-2="ent0023" data-link-type="dependency" data-source-line="64" id="lnk39"><path d="M763.9,1033.8969 C833.91,1015.4769 936.8974,988.3732 1015.1374,967.7932" fill="none" id="UC10-to-UC13" style="stroke:#181818;stroke-width:1;stroke-dasharray:7,7;"/><polygon fill="#181818" points="1020.94,966.2669,1011.2185,964.6879,1016.1045,967.5388,1013.2536,972.4247,1020.94,966.2669" style="stroke:#181818;stroke-width:1;"/><text fill="#000000" font-family="sans-serif" font-size="13" lengthAdjust="spacing" textLength="63.0068" x="863.33" y="990.1638">&#171;include&#187;</text></g><!--link UC06 to UC04--><g class="link" data-entity-1="ent0014" data-entity-2="ent0012" data-link-type="dependency" data-source-line="67" id="lnk40"><path d="M413.08,668.9269 C463.43,668.4169 516.4103,667.8771 567.1903,667.3671" fill="none" id="UC06-to-UC04" style="stroke:#181818;stroke-width:1;stroke-dasharray:7,7;"/><polygon fill="#181818" points="573.19,667.3069,564.1503,663.3975,568.1903,667.3571,564.2306,671.3971,573.19,667.3069" style="stroke:#181818;stroke-width:1;"/><text fill="#000000" font-family="sans-serif" font-size="13" lengthAdjust="spacing" textLength="61.1851" x="463.08" y="664.1638">&#171;extend&#187;</text></g><!--link UC04 to GMN41--><g class="link" data-entity-1="ent0012" data-entity-2="ent0042" data-link-type="association" data-source-line="71" id="lnk43"><path d="M766.12,687.5369 C798.91,701.2969 834.77,722.7969 854.33,755.0969 C871.65,783.7169 844.29,1027.9269 862.33,1056.0969 C898.02,1111.8269 969.71,1137.6969 1027.89,1149.6969" fill="none" id="UC04-GMN41" style="stroke:#181818;stroke-width:1;stroke-dasharray:7,7;"/></g><!--link UC10 to GMN44--><g class="link" data-entity-1="ent0019" data-entity-2="ent0045" data-link-type="association" data-source-line="77" id="lnk46"><path d="M778.44,1066.8669 C806.76,1076.0669 835.85,1090.9669 854.33,1115.0969 C873.64,1140.3069 841.53,1162.1069 862.33,1186.0969 C884.29,1211.4269 902.84,1196.8369 935.33,1205.0969 C961.1,1211.6469 988.95,1218.6169 1014.92,1225.0669" fill="none" id="UC10-GMN44" style="stroke:#181818;stroke-width:1;stroke-dasharray:7,7;"/></g><!--link UC06 to GMN47--><g class="link" data-entity-1="ent0014" data-entity-2="ent0048" data-link-type="association" data-source-line="83" id="lnk49"><path d="M305.3,696.2169 C328.46,768.7669 402.95,975.1469 533.08,1092.0969 C551.79,1108.9069 575.27,1121.9869 598.43,1131.9869" fill="none" id="UC06-GMN47" style="stroke:#181818;stroke-width:1;stroke-dasharray:7,7;"/></g><?plantuml-src VLMzRjim4Dxv58SidM94TfoV8WXGk4QNjWWIf5EN2tLsYKYaGL9kqg907w9lqA78q2deqbLlqYVfaHBbo3BYmI3llllvU3_ooXS4LyfvAX5oWdU6SeIvyrMEsgi2_dt_0QyLBYqsW1awuyBXsXaX2bfuy0QiMdxoa2jBqYkZXRjLUeLi0okKjxYaAt_FWO8QzRAW9m2KtjX6ZP_9cPA4Y3BOUrLKskm1EeYd9BwmPa7E6HjLtIsfv-NAaiEF-WAj96Knmbff0hMKeohHFpjpz-5qVYv4bsa7tVKwU_1L24WSEU7A4yibrh_gdmR2Q-Nel3K12Foh74bqZBoU7MImd_HeOSCrg0RWSG_Sae4Umu0Qs4tOhilAWZRmb7a0iCct7eatv7p8Fl5rkv8_PBzplLRiim41cZw7mu7DD70msbM53npkc8hluDC1_8ZXbxJYQbrXaNFYL5AWNoIJeq7g7xWgVD0xKpxkFM4BBPEpum7-953CbTy1FXc0Jndybbzs0zQEvyQjZAv_hqcvP7gwRPeTH9vkYJiYPGS3Zk-DLukcnVxGBg9PQAo4iknQqeqgkGDw9MtS3nej6syAEwjMfWmsJNQqNU9iq6xPf1SwjQapDxRpaeoRncDkBzhfZl-mlt_UJ43lEkbVf_thQU_ARyO-DskXEssS3KI7Gz4qUDaUD944BMYyBPXi2uwt1IV1RzefM7bJebTVC3SY2LlWKG1UKe6IDoh60ZfGMXPLJYAEu6WK-MRmadTNg-7b5NkgrOsVqKssT3l2qHslZbp4QMoiE6omQXID4HSSdT26EwJv3fX5MW2RLyrfJU39WWl3p2fNSPCe3aCZRaglrWRg1vPBB5S6k6CKTqlzQ9KP2Gu5mRyOH8a3qko7d9mqF3tXQ013HunOEQiVSxMClIzZGzT_jP8XWoNP02QWqEzy2hk62w2AvoB6jJE_8rd5KAc2CZuPiGwP0dyb50y-FsM8wvhDHQCkr_g1ltjLMHKOY6_2_GS0?></g></svg>